<svg version="1.1" xmlns="http://www.w3.org/2000/svg" xmlns:xlink="http://www.w3.org/1999/xlink" width="1060" height="676"><defs><clipPath id="zyQxeiFGTFSw"><path fill="none" stroke="none" d=" M 0 0 L 1060 0 L 1060 676 L 0 676 L 0 0 Z"/></clipPath></defs><g transform="scale(1,1)" clip-path="url(#zyQxeiFGTFSw)"><g><rect fill="rgb(255,255,255)" stroke="none" x="0" y="0" width="1060" height="676" fill-opacity="1"/><path fill="none" stroke="rgb(0,0,0)" paint-order="fill stroke markers" d=" M 679.7945534677965 326.460647358329 C 679.7945534677965 408.1613859986402 613.5630186471035 474.3929208193332 531.8622800067922 474.3929208193332 C 450.1615413664809 474.3929208193332 383.9300065457878 408.1613859986402 383.9300065457878 326.460647358329 C 383.9300065457878 244.7599087180178 450.1615413664809 178.52837389732483 531.8622800067922 178.52837389732483 C 613.5630186471035 178.52837389732483 679.7945534677965 244.7599087180178 679.7945534677965 326.460647358329 Z" stroke-opacity="0.6980392156862745" stroke-linejoin="round" stroke-miterlimit="10" stroke-width="3.5" stroke-dasharray="11.5,8"/><path fill="none" stroke="rgb(211,47,47)" paint-order="fill stroke markers" d=" M 902.9322734610043 289 C 902.9322734610043 370.7007386403112 836.7007386403113 436.93227346100423 755 436.93227346100423 C 673.2992613596887 436.93227346100423 607.0677265389957 370.7007386403112 607.0677265389957 289 C 607.0677265389957 207.29926135968878 673.2992613596887 141.0677265389958 755 141.0677265389958 C 836.7007386403113 141.0677265389958 902.9322734610043 207.29926135968878 902.9322734610043 289 Z" stroke-opacity="0.6980392156862745" stroke-linejoin="round" stroke-miterlimit="10" stroke-width="6.5" stroke-dasharray="14.5,8"/><path fill="none" stroke="rgb(21,101,192)" paint-order="fill stroke markers" d=" M 599.9322734610043 370 C 599.9322734610043 451.7007386403112 533.7007386403113 517.9322734610042 452 517.9322734610042 C 370.2992613596887 517.9322734610042 304.06772653899566 451.7007386403112 304.06772653899566 370 C 304.06772653899566 288.2992613596888 370.2992613596887 222.0677265389958 452 222.0677265389958 C 533.7007386403113 222.0677265389958 599.9322734610043 288.2992613596888 599.9322734610043 370 Z" stroke-opacity="0.6980392156862745" stroke-linejoin="round" stroke-miterlimit="10" stroke-width="6.5" stroke-dasharray="14.5,8"/><path fill="none" stroke="rgb(0,0,0)" paint-order="fill stroke markers" d=" M 452 370 L 531.8622800067922 326.460647358329" stroke-opacity="0.6980392156862745" stroke-linecap="round" stroke-linejoin="round" stroke-miterlimit="10" stroke-width="4.5"/><path fill="rgb(46,125,50)" stroke="none" paint-order="stroke fill markers" d=" M 540.8622800067922 326.460647358329 C 540.8622800067922 331.4312101068062 536.8328427552693 335.460647358329 531.8622800067922 335.460647358329 C 526.891717258315 335.460647358329 522.8622800067922 331.4312101068062 522.8622800067922 326.460647358329 C 522.8622800067922 321.49008460985186 526.891717258315 317.460647358329 531.8622800067922 317.460647358329 C 536.8328427552693 317.460647358329 540.8622800067922 321.49008460985186 540.8622800067922 326.460647358329 Z" fill-opacity="1"/><path fill="rgb(21,101,192)" stroke="none" paint-order="stroke fill markers" d=" M 461 370 C 461 374.97056274847716 456.97056274847716 379 452 379 C 447.02943725152284 379 443 374.97056274847716 443 370 C 443 365.02943725152284 447.02943725152284 361 452 361 C 456.97056274847716 361 461 365.02943725152284 461 370 Z" fill-opacity="1"/><path fill="rgb(0,0,0)" stroke="none" paint-order="stroke fill markers" d=" M 646 315 C 646 319.97056274847716 641.9705627484772 324 637 324 C 632.0294372515228 324 628 319.97056274847716 628 315 C 628 310.02943725152284 632.0294372515228 306 637 306 C 641.9705627484772 306 646 310.02943725152284 646 315 Z" fill-opacity="1"/><path fill="rgb(0,0,0)" stroke="none" paint-order="stroke fill markers" d=" M 472 255 C 472 259.97056274847716 467.97056274847716 264 463 264 C 458.02943725152284 264 454 259.97056274847716 454 255 C 454 250.02943725152286 458.02943725152284 246 463 246 C 467.97056274847716 246 472 250.02943725152286 472 255 Z" fill-opacity="1"/><path fill="rgb(211,47,47)" stroke="none" paint-order="stroke fill markers" d=" M 764 289 C 764 293.97056274847716 759.9705627484772 298 755 298 C 750.0294372515228 298 746 293.97056274847716 746 289 C 746 284.02943725152284 750.0294372515228 280 755 280 C 759.9705627484772 280 764 284.02943725152284 764 289 Z" fill-opacity="1"/><path fill="rgb(0,0,0)" stroke="none" paint-order="stroke fill markers" d=" M 543 418 C 543 422.97056274847716 538.9705627484772 427 534 427 C 529.0294372515228 427 525 422.97056274847716 525 418 C 525 413.02943725152284 529.0294372515228 409 534 409 C 538.9705627484772 409 543 413.02943725152284 543 418 Z" fill-opacity="1"/><text fill="rgb(21,101,192)" stroke="none" font-family="geogebra-sans-serif, sans-serif" font-size="32px" font-style="normal" font-weight="normal" text-decoration="normal" x="420" y="343" text-anchor="start" dominant-baseline="alphabetic" fill-opacity="1">A</text><text fill="rgb(211,47,47)" stroke="none" font-family="geogebra-sans-serif, sans-serif" font-size="32px" font-style="normal" font-weight="normal" text-decoration="normal" x="765" y="265" text-anchor="start" dominant-baseline="alphabetic" fill-opacity="1">B</text><text fill="rgb(46,125,50)" stroke="none" font-family="geogebra-sans-serif, sans-serif" font-size="32px" font-style="normal" font-weight="normal" text-decoration="normal" x="500" y="306" text-anchor="start" dominant-baseline="alphabetic" fill-opacity="1">K</text></g></g></svg>