<svg version="1.1" xmlns="http://www.w3.org/2000/svg" xmlns:xlink="http://www.w3.org/1999/xlink" width="1384" height="676"><defs><clipPath id="TbSWvWRwSvuJ"><path fill="none" stroke="none" d=" M 0 0 L 1384 0 L 1384 676 L 0 676 L 0 0 Z"/></clipPath></defs><g transform="scale(1,1)" clip-path="url(#TbSWvWRwSvuJ)"><g><rect fill="rgb(255,255,255)" stroke="none" x="0" y="0" width="1384" height="676" fill-opacity="1"/><path fill="none" stroke="rgb(97,97,97)" paint-order="fill stroke markers" d=" M 887.4594347101681 247.47388174632763 C 887.4594347101681 354.85865177011533 800.4068785961474 441.9112078841358 693.0221085723593 441.9112078841358 C 585.6373385485712 441.9112078841358 498.58478243455045 354.85865177011533 498.58478243455045 247.47388174632763 C 498.58478243455045 140.08911172253988 585.6373385485712 53.03655560851948 693.0221085723593 53.03655560851948 C 800.4068785961474 53.03655560851948 887.4594347101681 140.08911172253988 887.4594347101681 247.47388174632763 Z" stroke-opacity="0.6980392156862745" stroke-linejoin="round" stroke-miterlimit="10" stroke-width="3.5" stroke-dasharray="11.5,8"/><path fill="none" stroke="rgb(97,97,97)" paint-order="fill stroke markers" d=" M 1339.9132933245767 322.97918014521764 C 1339.9132933245767 430.36395016900536 1252.860737210556 517.4165062830258 1145.4759671867678 517.4165062830258 C 1038.0911971629796 517.4165062830258 951.0386410489589 430.36395016900536 951.0386410489589 322.97918014521764 C 951.0386410489589 215.5944101214299 1038.0911971629796 128.54185400740948 1145.4759671867678 128.54185400740948 C 1252.860737210556 128.54185400740948 1339.9132933245767 215.5944101214299 1339.9132933245767 322.97918014521764 Z" stroke-opacity="0.6980392156862745" stroke-linejoin="round" stroke-miterlimit="10" stroke-width="3.5" stroke-dasharray="11.5,8"/><path fill="none" stroke="rgb(97,97,97)" paint-order="fill stroke markers" d=" M 766.7523149332367 267.83964298351935 C 766.7523149332367 375.2244130073071 679.699758819216 462.2769691213275 572.3149887954278 462.2769691213275 C 464.9302187716396 462.2769691213275 377.8776626576189 375.2244130073071 377.8776626576189 267.83964298351935 C 377.8776626576189 160.4548729597316 464.9302187716396 73.4023168457112 572.3149887954278 73.4023168457112 C 679.699758819216 73.4023168457112 766.7523149332367 160.4548729597316 766.7523149332367 267.83964298351935 Z" stroke-opacity="0.6980392156862745" stroke-linejoin="round" stroke-miterlimit="10" stroke-width="3.5" stroke-dasharray="11.5,8"/><path fill="none" stroke="rgb(97,97,97)" paint-order="fill stroke markers" d=" M 1030.84167712874 254.7802789189066 C 1030.84167712874 362.1650489426943 943.7891210147193 449.2176050567148 836.4043509909312 449.2176050567148 C 729.019580967143 449.2176050567148 641.9670248531223 362.1650489426943 641.9670248531223 254.7802789189066 C 641.9670248531223 147.39550889511884 729.019580967143 60.34295278109843 836.4043509909312 60.34295278109843 C 943.7891210147193 60.34295278109843 1030.84167712874 147.39550889511884 1030.84167712874 254.7802789189066 Z" stroke-opacity="0.6980392156862745" stroke-linejoin="round" stroke-miterlimit="10" stroke-width="3.5" stroke-dasharray="11.5,8"/><path fill="none" stroke="rgb(97,97,97)" paint-order="fill stroke markers" d=" M 1191.9071672589648 289.60524975787393 C 1191.9071672589648 396.99001978166166 1104.854611144944 484.0425758956821 997.4698411211559 484.0425758956821 C 890.0850710973677 484.0425758956821 803.032514983347 396.99001978166166 803.032514983347 289.60524975787393 C 803.032514983347 182.22047973408618 890.0850710973677 95.16792362006578 997.4698411211559 95.16792362006578 C 1104.854611144944 95.16792362006578 1191.9071672589648 182.22047973408618 1191.9071672589648 289.60524975787393 Z" stroke-opacity="0.6980392156862745" stroke-linejoin="round" stroke-miterlimit="10" stroke-width="3.5" stroke-dasharray="11.5,8"/><path fill="none" stroke="rgb(97,97,97)" paint-order="fill stroke markers" d=" M 766.7523149332367 267.83964298351935 C 766.7523149332367 375.2244130073071 679.699758819216 462.2769691213275 572.3149887954278 462.2769691213275 C 464.9302187716396 462.2769691213275 377.8776626576189 375.2244130073071 377.8776626576189 267.83964298351935 C 377.8776626576189 160.4548729597316 464.9302187716396 73.4023168457112 572.3149887954278 73.4023168457112 C 679.699758819216 73.4023168457112 766.7523149332367 160.4548729597316 766.7523149332367 267.83964298351935 Z" stroke-opacity="0.6980392156862745" stroke-linejoin="round" stroke-miterlimit="10" stroke-width="3.5" stroke-dasharray="11.5,8"/><path fill="none" stroke="rgb(97,97,97)" paint-order="fill stroke markers" d=" M 623.0993102224957 317.1750183387231 C 623.0993102224957 424.5597883625108 536.0467541084749 511.61234447653123 428.6619840846868 511.61234447653123 C 321.2772140608987 511.61234447653123 234.22465794687795 424.5597883625108 234.22465794687795 317.1750183387231 C 234.22465794687795 209.79024831493533 321.2772140608987 122.73769220091492 428.6619840846868 122.73769220091492 C 536.0467541084749 122.73769220091492 623.0993102224957 209.79024831493533 623.0993102224957 317.1750183387231 Z" stroke-opacity="0.6980392156862745" stroke-linejoin="round" stroke-miterlimit="10" stroke-width="3.5" stroke-dasharray="11.5,8"/><path fill="none" stroke="rgb(97,97,97)" paint-order="fill stroke markers" d=" M 475.0931841568838 359.2551914358086 C 475.0931841568838 466.63996145959635 388.0406280428631 553.6925175736168 280.6558580190749 553.6925175736168 C 173.27108799528676 553.6925175736168 86.21853188126605 466.63996145959635 86.21853188126605 359.2551914358086 C 86.21853188126605 251.87042141202087 173.27108799528676 164.81786529800047 280.6558580190749 164.81786529800047 C 388.0406280428631 164.81786529800047 475.0931841568838 251.87042141202087 475.0931841568838 359.2551914358086 Z" stroke-opacity="0.6980392156862745" stroke-linejoin="round" stroke-miterlimit="10" stroke-width="3.5" stroke-dasharray="11.5,8"/><path fill="none" stroke="rgb(0,0,0)" paint-order="fill stroke markers" d=" M 997.4698411211559 289.60524975787393 L 1122.0637933874684 317.69996448459136" stroke-opacity="0.6980392156862745" stroke-linecap="round" stroke-linejoin="round" stroke-miterlimit="10" stroke-width="4"/><path fill="rgb(0,0,0)" stroke="none" paint-order="stroke fill markers" fill-rule="evenodd" d=" M 1145.4759671867678 322.97918014521764 L 1120.7439894723118 323.5530079344162 L 1123.383597302625 311.8469210347665 Z" fill-opacity="0.6980392156862745"/><path fill="none" stroke="rgb(0,0,0)" paint-order="fill stroke markers" d=" M 693.0221085723593 247.47388174632763 L 812.4354504102417 253.55888424353714" stroke-opacity="0.6980392156862745" stroke-linecap="round" stroke-linejoin="round" stroke-miterlimit="10" stroke-width="4"/><path fill="rgb(0,0,0)" stroke="none" paint-order="stroke fill markers" fill-rule="evenodd" d=" M 836.4043509909312 254.7802789189066 L 812.1301017413994 259.5511093887095 L 812.7407990790841 247.56665909836477 Z" fill-opacity="0.6980392156862745"/><path fill="none" stroke="rgb(0,0,0)" paint-order="fill stroke markers" d=" M 836.4043509909312 254.7802789189066 L 974.0119011505991 284.533262737213" stroke-opacity="0.6980392156862745" stroke-linecap="round" stroke-linejoin="round" stroke-miterlimit="10" stroke-width="4"/><path fill="rgb(0,0,0)" stroke="none" paint-order="stroke fill markers" fill-rule="evenodd" d=" M 997.4698411211559 289.60524975787393 L 972.7439043954339 290.3977477298522 L 975.2798979057643 278.66877774457384 Z" fill-opacity="0.6980392156862745"/><path fill="none" stroke="rgb(0,0,0)" paint-order="fill stroke markers" d=" M 693.0221085723593 247.47388174632763 L 595.980513972749 263.84678459865563" stroke-opacity="0.6980392156862745" stroke-linecap="round" stroke-linejoin="round" stroke-miterlimit="10" stroke-width="4"/><path fill="rgb(0,0,0)" stroke="none" paint-order="stroke fill markers" fill-rule="evenodd" d=" M 572.3149887954278 267.83964298351935 L 594.9822993765331 257.93040330432535 L 596.9787285689649 269.7631658929859 Z" fill-opacity="0.6980392156862745"/><path fill="none" stroke="rgb(0,0,0)" paint-order="fill stroke markers" d=" M 572.3149887954278 267.83964298351935 L 451.3606642495469 309.3795120194782" stroke-opacity="0.6980392156862745" stroke-linecap="round" stroke-linejoin="round" stroke-miterlimit="10" stroke-width="4"/><path fill="rgb(0,0,0)" stroke="none" paint-order="stroke fill markers" fill-rule="evenodd" d=" M 428.6619840846868 317.1750183387231 L 449.4117876697357 303.7048419782632 L 453.3095408293581 315.0541820606933 Z" fill-opacity="0.6980392156862745"/><path fill="none" stroke="rgb(0,0,0)" paint-order="fill stroke markers" d=" M 428.6619840846868 317.1750183387231 L 303.74095394845057 352.6917818088293" stroke-opacity="0.6980392156862745" stroke-linecap="round" stroke-linejoin="round" stroke-miterlimit="10" stroke-width="4"/><path fill="rgb(0,0,0)" stroke="none" paint-order="stroke fill markers" fill-rule="evenodd" d=" M 280.6558580190749 359.2551914358086 L 302.1001015417057 346.9205078264854 L 305.3818063551954 358.46305579117325 Z" fill-opacity="0.6980392156862745"/><path fill="rgb(46,125,50)" stroke="none" paint-order="stroke fill markers" d=" M 702.0221085723593 247.47388174632763 C 702.0221085723593 252.44444449480477 697.9926713208365 256.4738817463276 693.0221085723593 256.4738817463276 C 688.0515458238822 256.4738817463276 684.0221085723593 252.44444449480477 684.0221085723593 247.47388174632763 C 684.0221085723593 242.5033189978505 688.0515458238822 238.47388174632763 693.0221085723593 238.47388174632763 C 697.9926713208365 238.47388174632763 702.0221085723593 242.5033189978505 702.0221085723593 247.47388174632763 Z" fill-opacity="1"/><path fill="rgb(0,0,0)" stroke="none" paint-order="stroke fill markers" d=" M 581.3149887954278 267.83964298351935 C 581.3149887954278 272.8102057319965 577.285551543905 276.83964298351935 572.3149887954278 276.83964298351935 C 567.3444260469506 276.83964298351935 563.3149887954278 272.8102057319965 563.3149887954278 267.83964298351935 C 563.3149887954278 262.8690802350422 567.3444260469506 258.83964298351935 572.3149887954278 258.83964298351935 C 577.285551543905 258.83964298351935 581.3149887954278 262.8690802350422 581.3149887954278 267.83964298351935 Z" fill-opacity="1"/><path fill="rgb(0,0,0)" stroke="none" paint-order="stroke fill markers" d=" M 845.4043509909312 254.7802789189066 C 845.4043509909312 259.7508416673837 841.3749137394084 263.78027891890656 836.4043509909312 263.78027891890656 C 831.433788242454 263.78027891890656 827.4043509909312 259.7508416673837 827.4043509909312 254.7802789189066 C 827.4043509909312 249.80971617042945 831.433788242454 245.7802789189066 836.4043509909312 245.7802789189066 C 841.3749137394084 245.7802789189066 845.4043509909312 249.80971617042945 845.4043509909312 254.7802789189066 Z" fill-opacity="1"/><path fill="rgb(97,97,97)" stroke="none" paint-order="stroke fill markers" d=" M 611.5117873083299 153.54835169562494 C 611.5117873083299 158.51891444410208 607.482350056807 162.54835169562494 602.5117873083299 162.54835169562494 C 597.5412245598527 162.54835169562494 593.5117873083299 158.51891444410208 593.5117873083299 153.54835169562494 C 593.5117873083299 148.5777889471478 597.5412245598527 144.54835169562494 602.5117873083299 144.54835169562494 C 607.482350056807 144.54835169562494 611.5117873083299 148.5777889471478 611.5117873083299 153.54835169562494 Z" fill-opacity="1"/><path fill="rgb(211,47,47)" stroke="none" paint-order="stroke fill markers" d=" M 1154.4759671867678 322.97918014521764 C 1154.4759671867678 327.9497428936948 1150.4465299352448 331.97918014521764 1145.4759671867678 331.97918014521764 C 1140.5054044382907 331.97918014521764 1136.4759671867678 327.9497428936948 1136.4759671867678 322.97918014521764 C 1136.4759671867678 318.0086173967405 1140.5054044382907 313.97918014521764 1145.4759671867678 313.97918014521764 C 1150.4465299352448 313.97918014521764 1154.4759671867678 318.0086173967405 1154.4759671867678 322.97918014521764 Z" fill-opacity="1"/><path fill="rgb(97,97,97)" stroke="none" paint-order="stroke fill markers" d=" M 682.4876154071891 392.7631797325202 C 682.4876154071891 397.73374248099736 678.4581781556662 401.7631797325202 673.4876154071891 401.7631797325202 C 668.5170526587119 401.7631797325202 664.4876154071891 397.73374248099736 664.4876154071891 392.7631797325202 C 664.4876154071891 387.79261698404304 668.5170526587119 383.7631797325202 673.4876154071891 383.7631797325202 C 678.4581781556662 383.7631797325202 682.4876154071891 387.79261698404304 682.4876154071891 392.7631797325202 Z" fill-opacity="1"/><path fill="rgb(0,0,0)" stroke="none" paint-order="stroke fill markers" d=" M 1006.4698411211559 289.60524975787393 C 1006.4698411211559 294.5758125063511 1002.4404038696331 298.60524975787393 997.4698411211559 298.60524975787393 C 992.4992783726788 298.60524975787393 988.4698411211559 294.5758125063511 988.4698411211559 289.60524975787393 C 988.4698411211559 284.63468700939677 992.4992783726788 280.60524975787393 997.4698411211559 280.60524975787393 C 1002.4404038696331 280.60524975787393 1006.4698411211559 284.63468700939677 1006.4698411211559 289.60524975787393 Z" fill-opacity="1"/><path fill="rgb(97,97,97)" stroke="none" paint-order="stroke fill markers" d=" M 794.0902841107861 369.67630013383297 C 794.0902841107861 374.64686288231013 790.0608468592633 378.67630013383297 785.0902841107861 378.67630013383297 C 780.119721362309 378.67630013383297 776.0902841107861 374.64686288231013 776.0902841107861 369.67630013383297 C 776.0902841107861 364.7057373853558 780.119721362309 360.67630013383297 785.0902841107861 360.67630013383297 C 790.0608468592633 360.67630013383297 794.0902841107861 364.7057373853558 794.0902841107861 369.67630013383297 Z" fill-opacity="1"/><path fill="rgb(97,97,97)" stroke="none" paint-order="stroke fill markers" d=" M 787.494645694315 149.38197702369868 C 787.494645694315 154.35253977217582 783.4652084427921 158.38197702369868 778.494645694315 158.38197702369868 C 773.5240829458378 158.38197702369868 769.494645694315 154.35253977217582 769.494645694315 149.38197702369868 C 769.494645694315 144.41141427522155 773.5240829458378 140.38197702369868 778.494645694315 140.38197702369868 C 783.4652084427921 140.38197702369868 787.494645694315 144.41141427522155 787.494645694315 149.38197702369868 Z" fill-opacity="1"/><path fill="rgb(97,97,97)" stroke="none" paint-order="stroke fill markers" d=" M 957.6621168392699 396.0588537997173 C 957.6621168392699 401.0294165481945 953.632679587747 405.0588537997173 948.6621168392699 405.0588537997173 C 943.6915540907927 405.0588537997173 939.6621168392699 401.0294165481945 939.6621168392699 396.0588537997173 C 939.6621168392699 391.08829105124016 943.6915540907927 387.0588537997173 948.6621168392699 387.0588537997173 C 953.632679587747 387.0588537997173 957.6621168392699 391.08829105124016 957.6621168392699 396.0588537997173 Z" fill-opacity="1"/><path fill="rgb(97,97,97)" stroke="none" paint-order="stroke fill markers" d=" M 885.1100942580875 105.85076347498952 C 885.1100942580875 110.82132622346666 881.0806570065647 114.85076347498952 876.1100942580875 114.85076347498952 C 871.1395315096104 114.85076347498952 867.1100942580875 110.82132622346666 867.1100942580875 105.85076347498952 C 867.1100942580875 100.88020072651238 871.1395315096104 96.85076347498952 876.1100942580875 96.85076347498952 C 881.0806570065647 96.85076347498952 885.1100942580875 100.88020072651238 885.1100942580875 105.85076347498952 Z" fill-opacity="1"/><path fill="rgb(97,97,97)" stroke="none" paint-order="stroke fill markers" d=" M 1057.9158207696307 438.27093966513223 C 1057.9158207696307 443.2415024136094 1053.8863835181078 447.27093966513223 1048.9158207696307 447.27093966513223 C 1043.9452580211537 447.27093966513223 1039.9158207696307 443.2415024136094 1039.9158207696307 438.27093966513223 C 1039.9158207696307 433.30037691665507 1043.9452580211537 429.27093966513223 1048.9158207696307 429.27093966513223 C 1053.8863835181078 429.27093966513223 1057.9158207696307 433.30037691665507 1057.9158207696307 438.27093966513223 Z" fill-opacity="1"/><path fill="rgb(97,97,97)" stroke="none" paint-order="stroke fill markers" d=" M 1009.1080964877444 186.31755215593677 C 1009.1080964877444 191.2881149044139 1005.0786592362216 195.31755215593677 1000.1080964877444 195.31755215593677 C 995.1375337392673 195.31755215593677 991.1080964877444 191.2881149044139 991.1080964877444 186.31755215593677 C 991.1080964877444 181.34698940745963 995.1375337392673 177.31755215593677 1000.1080964877444 177.31755215593677 C 1005.0786592362216 177.31755215593677 1009.1080964877444 181.34698940745963 1009.1080964877444 186.31755215593677 Z" fill-opacity="1"/><path fill="rgb(0,0,0)" stroke="none" paint-order="stroke fill markers" d=" M 437.6619840846868 317.1750183387231 C 437.6619840846868 322.14558108720024 433.632546833164 326.1750183387231 428.6619840846868 326.1750183387231 C 423.69142133620966 326.1750183387231 419.6619840846868 322.14558108720024 419.6619840846868 317.1750183387231 C 419.6619840846868 312.2044555902459 423.69142133620966 308.1750183387231 428.6619840846868 308.1750183387231 C 433.632546833164 308.1750183387231 437.6619840846868 312.2044555902459 437.6619840846868 317.1750183387231 Z" fill-opacity="1"/><path fill="rgb(97,97,97)" stroke="none" paint-order="stroke fill markers" d=" M 498.60568305287995 432.9944289319554 C 498.60568305287995 437.96499168043255 494.5762458013571 441.9944289319554 489.60568305287995 441.9944289319554 C 484.6351203044028 441.9944289319554 480.60568305287995 437.96499168043255 480.60568305287995 432.9944289319554 C 480.60568305287995 428.0238661834782 484.6351203044028 423.9944289319554 489.60568305287995 423.9944289319554 C 494.5762458013571 423.9944289319554 498.60568305287995 428.0238661834782 498.60568305287995 432.9944289319554 Z" fill-opacity="1"/><path fill="rgb(97,97,97)" stroke="none" paint-order="stroke fill markers" d=" M 482.6442380850198 190.9344990474665 C 482.6442380850198 195.90506179594362 478.614800833497 199.9344990474665 473.6442380850198 199.9344990474665 C 468.67367533654266 199.9344990474665 464.6442380850198 195.90506179594362 464.6442380850198 190.9344990474665 C 464.6442380850198 185.96393629898935 468.67367533654266 181.9344990474665 473.6442380850198 181.9344990474665 C 478.614800833497 181.9344990474665 482.6442380850198 185.96393629898935 482.6442380850198 190.9344990474665 Z" fill-opacity="1"/><path fill="rgb(97,97,97)" stroke="none" paint-order="stroke fill markers" d=" M 289.6558580190749 222.85738898318652 C 289.6558580190749 227.82795173166366 285.6264207675521 231.85738898318652 280.6558580190749 231.85738898318652 C 275.68529527059775 231.85738898318652 271.6558580190749 227.82795173166366 271.6558580190749 222.85738898318652 C 271.6558580190749 217.8868262347094 275.68529527059775 213.85738898318652 280.6558580190749 213.85738898318652 C 285.6264207675521 213.85738898318652 289.6558580190749 217.8868262347094 289.6558580190749 222.85738898318652 Z" fill-opacity="1"/><path fill="rgb(21,101,192)" stroke="none" paint-order="stroke fill markers" d=" M 289.6558580190749 359.2551914358086 C 289.6558580190749 364.2257541842858 285.6264207675521 368.2551914358086 280.6558580190749 368.2551914358086 C 275.68529527059775 368.2551914358086 271.6558580190749 364.2257541842858 271.6558580190749 359.2551914358086 C 271.6558580190749 354.28462868733146 275.68529527059775 350.2551914358086 280.6558580190749 350.2551914358086 C 285.6264207675521 350.2551914358086 289.6558580190749 354.28462868733146 289.6558580190749 359.2551914358086 Z" fill-opacity="1"/><text fill="rgb(21,101,192)" stroke="none" font-family="geogebra-sans-serif, sans-serif" font-size="32px" font-style="normal" font-weight="normal" text-decoration="normal" x="276" y="329" text-anchor="start" dominant-baseline="alphabetic" fill-opacity="1">A</text><text fill="rgb(211,47,47)" stroke="none" font-family="geogebra-sans-serif, sans-serif" font-size="32px" font-style="normal" font-weight="normal" text-decoration="normal" x="1139" y="296" text-anchor="start" dominant-baseline="alphabetic" fill-opacity="1">B</text><text fill="rgb(46,125,50)" stroke="none" font-family="geogebra-sans-serif, sans-serif" font-size="32px" font-style="normal" font-weight="normal" text-decoration="normal" x="692" y="219" text-anchor="start" dominant-baseline="alphabetic" fill-opacity="1">K</text></g></g></svg>