<svg version="1.1" xmlns="http://www.w3.org/2000/svg" xmlns:xlink="http://www.w3.org/1999/xlink" width="1060" height="676"><defs><clipPath id="zJVuXUclekEb"><path fill="none" stroke="none" d=" M 0 0 L 1060 0 L 1060 676 L 0 676 L 0 0 Z"/></clipPath></defs><g transform="scale(1,1)" clip-path="url(#zJVuXUclekEb)"><g><rect fill="rgb(255,255,255)" stroke="none" x="0" y="0" width="1060" height="676" fill-opacity="1"/><path fill="none" stroke="rgb(97,97,97)" paint-order="fill stroke markers" d=" M 485.60367089237207 275.36119032667636 C 485.60367089237207 356.76708558892955 419.61115385518383 422.7596026261179 338.2052585929307 422.7596026261179 C 256.7993633306776 422.7596026261179 190.80684629348934 356.76708558892955 190.80684629348934 275.36119032667636 C 190.80684629348934 193.95529506442318 256.7993633306776 127.96277802723483 338.2052585929307 127.96277802723483 C 419.61115385518383 127.96277802723483 485.60367089237207 193.95529506442318 485.60367089237207 275.36119032667636 Z" stroke-opacity="0.6980392156862745" stroke-linejoin="round" stroke-miterlimit="10" stroke-width="3.5" stroke-dasharray="11.5,8"/><path fill="none" stroke="rgb(97,97,97)" paint-order="fill stroke markers" d=" M 822.5211122287293 265.9346847554617 C 822.5211122287293 347.3405800177149 756.5285951915411 413.33309705490325 675.1226999292879 413.33309705490325 C 593.7168046670348 413.33309705490325 527.7242876298466 347.3405800177149 527.7242876298466 265.9346847554617 C 527.7242876298466 184.52878949320854 593.7168046670348 118.53627245602019 675.1226999292879 118.53627245602019 C 756.5285951915411 118.53627245602019 822.5211122287293 184.52878949320854 822.5211122287293 265.9346847554617 Z" stroke-opacity="0.6980392156862745" stroke-linejoin="round" stroke-miterlimit="10" stroke-width="3.5" stroke-dasharray="11.5,8"/><path fill="none" stroke="rgb(97,97,97)" paint-order="fill stroke markers" d=" M 370.15951716687493 324.7217642899319 C 370.15951716687493 406.1276595521851 304.1670001296867 472.12017658937344 222.76110486743357 472.12017658937344 C 141.35520960518045 472.12017658937344 75.36269256799221 406.1276595521851 75.36269256799221 324.7217642899319 C 75.36269256799221 243.31586902767873 141.35520960518045 177.32335199049038 222.76110486743357 177.32335199049038 C 304.1670001296867 177.32335199049038 370.15951716687493 243.31586902767873 370.15951716687493 324.7217642899319 Z" stroke-opacity="0.6980392156862745" stroke-linejoin="round" stroke-miterlimit="10" stroke-width="3.5" stroke-dasharray="11.5,8"/><path fill="none" stroke="rgb(97,97,97)" paint-order="fill stroke markers" d=" M 606.3042264833055 278.88777007661616 C 606.3042264833055 360.29366533886935 540.3117094461172 426.2861823760577 458.90581418386415 426.2861823760577 C 377.499918921611 426.2861823760577 311.5074018844228 360.29366533886935 311.5074018844228 278.88777007661616 C 311.5074018844228 197.48187481436298 377.499918921611 131.48935777717463 458.90581418386415 131.48935777717463 C 540.3117094461172 131.48935777717463 606.3042264833055 197.48187481436298 606.3042264833055 278.88777007661616 Z" stroke-opacity="0.6980392156862745" stroke-linejoin="round" stroke-miterlimit="10" stroke-width="3.5" stroke-dasharray="11.5,8"/><path fill="none" stroke="rgb(97,97,97)" paint-order="fill stroke markers" d=" M 728.8603414449973 292.837246576321 C 728.8603414449973 374.24314183857416 662.867824407809 440.2356588757625 581.4619291455559 440.2356588757625 C 500.0560338833028 440.2356588757625 434.06351684611457 374.24314183857416 434.06351684611457 292.837246576321 C 434.06351684611457 211.4313513140678 500.0560338833028 145.43883427687945 581.4619291455559 145.43883427687945 C 662.867824407809 145.43883427687945 728.8603414449973 211.4313513140678 728.8603414449973 292.837246576321 Z" stroke-opacity="0.6980392156862745" stroke-linejoin="round" stroke-miterlimit="10" stroke-width="3.5" stroke-dasharray="11.5,8"/><path fill="none" stroke="rgb(0,0,0)" paint-order="fill stroke markers" d=" M 581.4619291455559 292.837246576321 L 652.0554081999564 272.5603962096314" stroke-opacity="0.6980392156862745" stroke-linecap="round" stroke-linejoin="round" stroke-miterlimit="10" stroke-width="4"/><path fill="rgb(0,0,0)" stroke="none" paint-order="stroke fill markers" fill-rule="evenodd" d=" M 675.1226999292879 265.9346847554617 L 653.7118360634988 278.32721914196424 L 650.3989803364141 266.79357327729855 Z" fill-opacity="0.6980392156862745"/><path fill="none" stroke="rgb(0,0,0)" paint-order="fill stroke markers" d=" M 222.76110486743357 324.7217642899319 L 316.13779250653477 284.79659919570605" stroke-opacity="0.6980392156862745" stroke-linecap="round" stroke-linejoin="round" stroke-miterlimit="10" stroke-width="4"/><path fill="rgb(0,0,0)" stroke="none" paint-order="stroke fill markers" fill-rule="evenodd" d=" M 338.2052585929307 275.36119032667636 L 318.4966447237922 290.31346571730506 L 313.77894028927733 279.27973267410704 Z" fill-opacity="0.6980392156862745"/><path fill="none" stroke="rgb(0,0,0)" paint-order="fill stroke markers" d=" M 338.2052585929307 275.36119032667636 L 434.91605164292014 278.1868469502183" stroke-opacity="0.6980392156862745" stroke-linecap="round" stroke-linejoin="round" stroke-miterlimit="10" stroke-width="4"/><path fill="rgb(0,0,0)" stroke="none" paint-order="stroke fill markers" fill-rule="evenodd" d=" M 458.90581418386415 278.88777007661616 L 434.7408208613207 284.1842875854543 L 435.0912824245196 272.1894063149823 Z" fill-opacity="0.6980392156862745"/><path fill="none" stroke="rgb(0,0,0)" paint-order="fill stroke markers" d=" M 458.90581418386415 278.88777007661616 L 557.6158977419219 290.123064140135" stroke-opacity="0.6980392156862745" stroke-linecap="round" stroke-linejoin="round" stroke-miterlimit="10" stroke-width="4"/><path fill="rgb(0,0,0)" stroke="none" paint-order="stroke fill markers" fill-rule="evenodd" d=" M 581.4619291455559 292.837246576321 L 556.9373521328754 296.0845719910435 L 558.2944433509684 284.1615562892265 Z" fill-opacity="0.6980392156862745"/><path fill="rgb(0,0,0)" stroke="none" paint-order="stroke fill markers" d=" M 347.2052585929307 275.36119032667636 C 347.2052585929307 280.33175307515353 343.17582134140787 284.36119032667636 338.2052585929307 284.36119032667636 C 333.23469584445354 284.36119032667636 329.2052585929307 280.33175307515353 329.2052585929307 275.36119032667636 C 329.2052585929307 270.3906275781992 333.23469584445354 266.36119032667636 338.2052585929307 266.36119032667636 C 343.17582134140787 266.36119032667636 347.2052585929307 270.3906275781992 347.2052585929307 275.36119032667636 Z" fill-opacity="1"/><path fill="rgb(21,101,192)" stroke="none" paint-order="stroke fill markers" d=" M 231.76110486743357 324.7217642899319 C 231.76110486743357 329.6923270384091 227.7316676159107 333.7217642899319 222.76110486743357 333.7217642899319 C 217.79054211895644 333.7217642899319 213.76110486743357 329.6923270384091 213.76110486743357 324.7217642899319 C 213.76110486743357 319.75120154145475 217.79054211895644 315.7217642899319 222.76110486743357 315.7217642899319 C 227.7316676159107 315.7217642899319 231.76110486743357 319.75120154145475 231.76110486743357 324.7217642899319 Z" fill-opacity="1"/><path fill="rgb(0,0,0)" stroke="none" paint-order="stroke fill markers" d=" M 467.90581418386415 278.88777007661616 C 467.90581418386415 283.8583328250933 463.8763769323413 287.88777007661616 458.90581418386415 287.88777007661616 C 453.935251435387 287.88777007661616 449.90581418386415 283.8583328250933 449.90581418386415 278.88777007661616 C 449.90581418386415 273.917207328139 453.935251435387 269.88777007661616 458.90581418386415 269.88777007661616 C 463.8763769323413 269.88777007661616 467.90581418386415 273.917207328139 467.90581418386415 278.88777007661616 Z" fill-opacity="1"/><path fill="rgb(97,97,97)" stroke="none" paint-order="stroke fill markers" d=" M 278.5914902592995 204.15843168534047 C 278.5914902592995 209.1289944338176 274.5620530077767 213.15843168534047 269.5914902592995 213.15843168534047 C 264.62092751082236 213.15843168534047 260.5914902592995 209.1289944338176 260.5914902592995 204.15843168534047 C 260.5914902592995 199.18786893686334 264.62092751082236 195.15843168534047 269.5914902592995 195.15843168534047 C 274.5620530077767 195.15843168534047 278.5914902592995 199.18786893686334 278.5914902592995 204.15843168534047 Z" fill-opacity="1"/><path fill="rgb(211,47,47)" stroke="none" paint-order="stroke fill markers" d=" M 684.1226999292879 265.9346847554617 C 684.1226999292879 270.9052475039389 680.0932626777651 274.9346847554617 675.1226999292879 274.9346847554617 C 670.1521371808108 274.9346847554617 666.1226999292879 270.9052475039389 666.1226999292879 265.9346847554617 C 666.1226999292879 260.96412200698455 670.1521371808108 256.9346847554617 675.1226999292879 256.9346847554617 C 680.0932626777651 256.9346847554617 684.1226999292879 260.96412200698455 684.1226999292879 265.9346847554617 Z" fill-opacity="1"/><path fill="rgb(97,97,97)" stroke="none" paint-order="stroke fill markers" d=" M 332.39661390101793 385.50162618150284 C 332.39661390101793 390.47218892998 328.3671766494951 394.50162618150284 323.39661390101793 394.50162618150284 C 318.42605115254077 394.50162618150284 314.39661390101793 390.47218892998 314.39661390101793 385.50162618150284 C 314.39661390101793 380.5310634330257 318.42605115254077 376.50162618150284 323.39661390101793 376.50162618150284 C 328.3671766494951 376.50162618150284 332.39661390101793 380.5310634330257 332.39661390101793 385.50162618150284 Z" fill-opacity="1"/><path fill="rgb(0,0,0)" stroke="none" paint-order="stroke fill markers" d=" M 590.4619291455559 292.837246576321 C 590.4619291455559 297.80780932479814 586.4324918940331 301.837246576321 581.4619291455559 301.837246576321 C 576.4913663970788 301.837246576321 572.4619291455559 297.80780932479814 572.4619291455559 292.837246576321 C 572.4619291455559 287.8666838278438 576.4913663970788 283.837246576321 581.4619291455559 283.837246576321 C 586.4324918940331 283.837246576321 590.4619291455559 287.8666838278438 590.4619291455559 292.837246576321 Z" fill-opacity="1"/><path fill="rgb(97,97,97)" stroke="none" paint-order="stroke fill markers" d=" M 417 368 C 417 372.97056274847716 412.97056274847716 377 408 377 C 403.02943725152284 377 399 372.97056274847716 399 368 C 399 363.02943725152284 403.02943725152284 359 408 359 C 412.97056274847716 359 417 363.02943725152284 417 368 Z" fill-opacity="1"/><path fill="rgb(97,97,97)" stroke="none" paint-order="stroke fill markers" d=" M 412 201 C 412 205.97056274847714 407.97056274847716 210 403 210 C 398.02943725152284 210 394 205.97056274847714 394 201 C 394 196.02943725152286 398.02943725152284 192 403 192 C 407.97056274847716 192 412 196.02943725152286 412 201 Z" fill-opacity="1"/><path fill="rgb(97,97,97)" stroke="none" paint-order="stroke fill markers" d=" M 541 388 C 541 392.97056274847716 536.9705627484772 397 532 397 C 527.0294372515228 397 523 392.97056274847716 523 388 C 523 383.02943725152284 527.0294372515228 379 532 379 C 536.9705627484772 379 541 383.02943725152284 541 388 Z" fill-opacity="1"/><path fill="rgb(97,97,97)" stroke="none" paint-order="stroke fill markers" d=" M 486 168 C 486 172.97056274847714 481.97056274847716 177 477 177 C 472.02943725152284 177 468 172.97056274847714 468 168 C 468 163.02943725152286 472.02943725152284 159 477 159 C 481.97056274847716 159 486 163.02943725152286 486 168 Z" fill-opacity="1"/><path fill="rgb(97,97,97)" stroke="none" paint-order="stroke fill markers" d=" M 617 420 C 617 424.97056274847716 612.9705627484772 429 608 429 C 603.0294372515228 429 599 424.97056274847716 599 420 C 599 415.02943725152284 603.0294372515228 411 608 411 C 612.9705627484772 411 617 415.02943725152284 617 420 Z" fill-opacity="1"/><path fill="rgb(97,97,97)" stroke="none" paint-order="stroke fill markers" d=" M 580 229 C 580 233.97056274847714 575.9705627484772 238 571 238 C 566.0294372515228 238 562 233.97056274847714 562 229 C 562 224.02943725152286 566.0294372515228 220 571 220 C 575.9705627484772 220 580 224.02943725152286 580 229 Z" fill-opacity="1"/><path fill="rgb(97,97,97)" stroke="none" paint-order="stroke fill markers" d=" M 152 295 C 152 299.97056274847716 147.97056274847714 304 143 304 C 138.02943725152286 304 134 299.97056274847716 134 295 C 134 290.02943725152284 138.02943725152286 286 143 286 C 147.97056274847714 286 152 290.02943725152284 152 295 Z" fill-opacity="1"/><path fill="rgb(97,97,97)" stroke="none" paint-order="stroke fill markers" d=" M 193 416 C 193 420.97056274847716 188.97056274847714 425 184 425 C 179.02943725152286 425 175 420.97056274847716 175 416 C 175 411.02943725152284 179.02943725152286 407 184 407 C 188.97056274847714 407 193 411.02943725152284 193 416 Z" fill-opacity="1"/><text fill="rgb(21,101,192)" stroke="none" font-family="geogebra-sans-serif, sans-serif" font-size="32px" font-style="normal" font-weight="normal" text-decoration="normal" x="214" y="302" text-anchor="start" dominant-baseline="alphabetic" fill-opacity="1">A</text><text fill="rgb(211,47,47)" stroke="none" font-family="geogebra-sans-serif, sans-serif" font-size="32px" font-style="normal" font-weight="normal" text-decoration="normal" x="663" y="242" text-anchor="start" dominant-baseline="alphabetic" fill-opacity="1">B</text></g></g></svg>