<svg version="1.1" xmlns="http://www.w3.org/2000/svg" xmlns:xlink="http://www.w3.org/1999/xlink" width="1384" height="725"><defs><clipPath id="gpHuoRJlnBDg"><path fill="none" stroke="none" d=" M 0 0 L 1384 0 L 1384 725 L 0 725 L 0 0 Z"/></clipPath></defs><g transform="scale(1,1)" clip-path="url(#gpHuoRJlnBDg)"><g><rect fill="rgb(255,255,255)" stroke="none" x="0" y="0" width="1384" height="725" fill-opacity="1"/><path fill="none" stroke="rgb(21,101,192)" paint-order="fill stroke markers" d=" M 750.8292328339382 329.037605980134 C 750.8292328339382 481.0268720152072 627.6175883212568 604.2385165278886 475.6283222861836 604.2385165278886 C 323.63905625111045 604.2385165278886 200.42741173842904 481.0268720152072 200.42741173842904 329.037605980134 C 200.42741173842904 177.0483399450608 323.63905625111045 53.83669543237937 475.6283222861836 53.83669543237937 C 627.6175883212568 53.83669543237937 750.8292328339382 177.0483399450608 750.8292328339382 329.037605980134 Z" stroke-opacity="0.6980392156862745" stroke-linejoin="round" stroke-miterlimit="10" stroke-width="6.5" stroke-dasharray="14.5,8"/><path fill="none" stroke="rgb(211,47,47)" paint-order="fill stroke markers" d=" M 1164.1823061256073 391.70304209602193 C 1164.1823061256073 543.6923081310952 1040.970661612926 666.9039526437766 888.9813955778528 666.9039526437766 C 736.9921295427796 666.9039526437766 613.7804850300982 543.6923081310952 613.7804850300982 391.70304209602193 C 613.7804850300982 239.71377606094873 736.9921295427796 116.5021315482673 888.9813955778528 116.5021315482673 C 1040.970661612926 116.5021315482673 1164.1823061256073 239.71377606094873 1164.1823061256073 391.70304209602193 Z" stroke-opacity="0.6980392156862745" stroke-linejoin="round" stroke-miterlimit="10" stroke-width="6.5" stroke-dasharray="14.5,8"/><path fill="rgb(21,101,192)" stroke="none" paint-order="stroke fill markers" d=" M 484.6283222861836 329.037605980134 C 484.6283222861836 334.00816872861117 480.5988850346608 338.037605980134 475.6283222861836 338.037605980134 C 470.65775953770645 338.037605980134 466.6283222861836 334.00816872861117 466.6283222861836 329.037605980134 C 466.6283222861836 324.06704323165684 470.65775953770645 320.037605980134 475.6283222861836 320.037605980134 C 480.5988850346608 320.037605980134 484.6283222861836 324.06704323165684 484.6283222861836 329.037605980134 Z" fill-opacity="1"/><path fill="rgb(0,0,0)" stroke="none" paint-order="stroke fill markers" d=" M 408.6115316168316 508.6313966324627 C 408.6115316168316 513.6019593809399 404.58209436530876 517.6313966324627 399.6115316168316 517.6313966324627 C 394.64096886835443 517.6313966324627 390.6115316168316 513.6019593809399 390.6115316168316 508.6313966324627 C 390.6115316168316 503.66083388398556 394.64096886835443 499.6313966324627 399.6115316168316 499.6313966324627 C 404.58209436530876 499.6313966324627 408.6115316168316 503.66083388398556 408.6115316168316 508.6313966324627 Z" fill-opacity="1"/><path fill="rgb(0,0,0)" stroke="none" paint-order="stroke fill markers" d=" M 682.0781180759651 437.9393538743193 C 682.0781180759651 442.90991662279646 678.0486808244423 446.9393538743193 673.0781180759651 446.9393538743193 C 668.107555327488 446.9393538743193 664.0781180759651 442.90991662279646 664.0781180759651 437.9393538743193 C 664.0781180759651 432.96879112584213 668.107555327488 428.9393538743193 673.0781180759651 428.9393538743193 C 678.0486808244423 428.9393538743193 682.0781180759651 432.96879112584213 682.0781180759651 437.9393538743193 Z" fill-opacity="1"/><path fill="rgb(0,0,0)" stroke="none" paint-order="stroke fill markers" d=" M 551.5618438293968 123.44995330619219 C 551.5618438293968 128.42051605466932 547.532406577874 132.44995330619219 542.5618438293968 132.44995330619219 C 537.5912810809197 132.44995330619219 533.5618438293968 128.42051605466932 533.5618438293968 123.44995330619219 C 533.5618438293968 118.47939055771505 537.5912810809197 114.44995330619219 542.5618438293968 114.44995330619219 C 547.532406577874 114.44995330619219 551.5618438293968 118.47939055771505 551.5618438293968 123.44995330619219 Z" fill-opacity="1"/><path fill="rgb(211,47,47)" stroke="none" paint-order="stroke fill markers" d=" M 897.9813955778528 391.70304209602193 C 897.9813955778528 396.6736048444991 893.95195832633 400.70304209602193 888.9813955778528 400.70304209602193 C 884.0108328293757 400.70304209602193 879.9813955778528 396.6736048444991 879.9813955778528 391.70304209602193 C 879.9813955778528 386.73247934754477 884.0108328293757 382.70304209602193 888.9813955778528 382.70304209602193 C 893.95195832633 382.70304209602193 897.9813955778528 386.73247934754477 897.9813955778528 391.70304209602193 Z" fill-opacity="1"/><path fill="rgb(0,0,0)" stroke="none" paint-order="stroke fill markers" d=" M 937.0646270571658 558.6950311439954 C 937.0646270571658 563.6655938924725 933.035189805643 567.6950311439954 928.0646270571658 567.6950311439954 C 923.0940643086886 567.6950311439954 919.0646270571658 563.6655938924725 919.0646270571658 558.6950311439954 C 919.0646270571658 553.7244683955182 923.0940643086886 549.6950311439954 928.0646270571658 549.6950311439954 C 933.035189805643 549.6950311439954 937.0646270571658 553.7244683955182 937.0646270571658 558.6950311439954 Z" fill-opacity="1"/><path fill="rgb(0,0,0)" stroke="none" paint-order="stroke fill markers" d=" M 367.68455949369593 225.863225599889 C 367.68455949369593 230.83378834836614 363.6551222421731 234.863225599889 358.68455949369593 234.863225599889 C 353.71399674521876 234.863225599889 349.68455949369593 230.83378834836614 349.68455949369593 225.863225599889 C 349.68455949369593 220.89266285141187 353.71399674521876 216.863225599889 358.68455949369593 216.863225599889 C 363.6551222421731 216.863225599889 367.68455949369593 220.89266285141187 367.68455949369593 225.863225599889 Z" fill-opacity="1"/><text fill="rgb(21,101,192)" stroke="none" font-family="geogebra-sans-serif, sans-serif" font-size="32px" font-style="normal" font-weight="normal" text-decoration="normal" x="497" y="280" text-anchor="start" dominant-baseline="alphabetic" fill-opacity="1">A</text><text fill="rgb(211,47,47)" stroke="none" font-family="geogebra-sans-serif, sans-serif" font-size="32px" font-style="normal" font-weight="normal" text-decoration="normal" x="909" y="339" text-anchor="start" dominant-baseline="alphabetic" fill-opacity="1">B</text></g></g></svg>