<svg version="1.1" xmlns="http://www.w3.org/2000/svg" xmlns:xlink="http://www.w3.org/1999/xlink" width="1384" height="676"><defs><clipPath id="hhUXtmNhcaVL"><path fill="none" stroke="none" d=" M 0 0 L 1384 0 L 1384 676 L 0 676 L 0 0 Z"/></clipPath></defs><g transform="scale(1,1)" clip-path="url(#hhUXtmNhcaVL)"><g><rect fill="rgb(255,255,255)" stroke="none" x="0" y="0" width="1384" height="676" fill-opacity="1"/><path fill="none" stroke="rgb(97,97,97)" paint-order="fill stroke markers" d=" M 887.4594347101681 271.9738817463276 C 887.4594347101681 379.35865177011533 800.4068785961474 466.4112078841357 693.0221085723593 466.4112078841357 C 585.6373385485712 466.4112078841357 498.58478243455045 379.35865177011533 498.58478243455045 271.9738817463276 C 498.58478243455045 164.58911172253988 585.6373385485712 77.53655560851948 693.0221085723593 77.53655560851948 C 800.4068785961474 77.53655560851948 887.4594347101681 164.58911172253988 887.4594347101681 271.9738817463276 Z" stroke-opacity="0.6980392156862745" stroke-linejoin="round" stroke-miterlimit="10" stroke-width="3.5" stroke-dasharray="11.5,8"/><path fill="none" stroke="rgb(97,97,97)" paint-order="fill stroke markers" d=" M 1339.9132933245767 347.4791801452176 C 1339.9132933245767 454.8639501690053 1252.860737210556 541.9165062830257 1145.4759671867678 541.9165062830257 C 1038.0911971629796 541.9165062830257 951.0386410489589 454.8639501690053 951.0386410489589 347.4791801452176 C 951.0386410489589 240.09441012142986 1038.0911971629796 153.04185400740946 1145.4759671867678 153.04185400740946 C 1252.860737210556 153.04185400740946 1339.9132933245767 240.09441012142986 1339.9132933245767 347.4791801452176 Z" stroke-opacity="0.6980392156862745" stroke-linejoin="round" stroke-miterlimit="10" stroke-width="3.5" stroke-dasharray="11.5,8"/><path fill="none" stroke="rgb(97,97,97)" paint-order="fill stroke markers" d=" M 766.7523149332367 292.3396429835193 C 766.7523149332367 399.724413007307 679.699758819216 486.7769691213274 572.3149887954278 486.7769691213274 C 464.9302187716396 486.7769691213274 377.8776626576189 399.724413007307 377.8776626576189 292.3396429835193 C 377.8776626576189 184.95487295973157 464.9302187716396 97.90231684571117 572.3149887954278 97.90231684571117 C 679.699758819216 97.90231684571117 766.7523149332367 184.95487295973157 766.7523149332367 292.3396429835193 Z" stroke-opacity="0.6980392156862745" stroke-linejoin="round" stroke-miterlimit="10" stroke-width="3.5" stroke-dasharray="11.5,8"/><path fill="none" stroke="rgb(97,97,97)" paint-order="fill stroke markers" d=" M 1030.84167712874 279.28027891890656 C 1030.84167712874 386.6650489426943 943.7891210147193 473.71760505671466 836.4043509909312 473.71760505671466 C 729.019580967143 473.71760505671466 641.9670248531223 386.6650489426943 641.9670248531223 279.28027891890656 C 641.9670248531223 171.89550889511884 729.019580967143 84.84295278109843 836.4043509909312 84.84295278109843 C 943.7891210147193 84.84295278109843 1030.84167712874 171.89550889511884 1030.84167712874 279.28027891890656 Z" stroke-opacity="0.6980392156862745" stroke-linejoin="round" stroke-miterlimit="10" stroke-width="3.5" stroke-dasharray="11.5,8"/><path fill="none" stroke="rgb(97,97,97)" paint-order="fill stroke markers" d=" M 1191.9071672589648 314.10524975787393 C 1191.9071672589648 421.49001978166166 1104.854611144944 508.54257589568203 997.4698411211559 508.54257589568203 C 890.0850710973677 508.54257589568203 803.032514983347 421.49001978166166 803.032514983347 314.10524975787393 C 803.032514983347 206.7204797340862 890.0850710973677 119.6679236200658 997.4698411211559 119.6679236200658 C 1104.854611144944 119.6679236200658 1191.9071672589648 206.7204797340862 1191.9071672589648 314.10524975787393 Z" stroke-opacity="0.6980392156862745" stroke-linejoin="round" stroke-miterlimit="10" stroke-width="3.5" stroke-dasharray="11.5,8"/><path fill="none" stroke="rgb(97,97,97)" paint-order="fill stroke markers" d=" M 766.7523149332367 292.3396429835193 C 766.7523149332367 399.724413007307 679.699758819216 486.7769691213274 572.3149887954278 486.7769691213274 C 464.9302187716396 486.7769691213274 377.8776626576189 399.724413007307 377.8776626576189 292.3396429835193 C 377.8776626576189 184.95487295973157 464.9302187716396 97.90231684571117 572.3149887954278 97.90231684571117 C 679.699758819216 97.90231684571117 766.7523149332367 184.95487295973157 766.7523149332367 292.3396429835193 Z" stroke-opacity="0.6980392156862745" stroke-linejoin="round" stroke-miterlimit="10" stroke-width="3.5" stroke-dasharray="11.5,8"/><path fill="none" stroke="rgb(97,97,97)" paint-order="fill stroke markers" d=" M 623.0993102224957 341.675018338723 C 623.0993102224957 449.05978836251074 536.0467541084749 536.1123444765311 428.6619840846868 536.1123444765311 C 321.2772140608987 536.1123444765311 234.22465794687795 449.05978836251074 234.22465794687795 341.675018338723 C 234.22465794687795 234.2902483149353 321.2772140608987 147.2376922009149 428.6619840846868 147.2376922009149 C 536.0467541084749 147.2376922009149 623.0993102224957 234.2902483149353 623.0993102224957 341.675018338723 Z" stroke-opacity="0.6980392156862745" stroke-linejoin="round" stroke-miterlimit="10" stroke-width="3.5" stroke-dasharray="11.5,8"/><path fill="none" stroke="rgb(97,97,97)" paint-order="fill stroke markers" d=" M 475.0931841568838 383.75519143580857 C 475.0931841568838 491.1399614595963 388.0406280428631 578.1925175736167 280.6558580190749 578.1925175736167 C 173.27108799528676 578.1925175736167 86.21853188126605 491.1399614595963 86.21853188126605 383.75519143580857 C 86.21853188126605 276.37042141202085 173.27108799528676 189.31786529800044 280.6558580190749 189.31786529800044 C 388.0406280428631 189.31786529800044 475.0931841568838 276.37042141202085 475.0931841568838 383.75519143580857 Z" stroke-opacity="0.6980392156862745" stroke-linejoin="round" stroke-miterlimit="10" stroke-width="3.5" stroke-dasharray="11.5,8"/><path fill="none" stroke="rgb(0,0,0)" paint-order="fill stroke markers" d=" M 997.4698411211559 314.10524975787393 L 1122.0637933874684 342.1999644845913" stroke-opacity="0.6980392156862745" stroke-linecap="round" stroke-linejoin="round" stroke-miterlimit="10" stroke-width="4"/><path fill="rgb(0,0,0)" stroke="none" paint-order="stroke fill markers" fill-rule="evenodd" d=" M 1145.4759671867678 347.4791801452176 L 1120.7439894723118 348.05300793441614 L 1123.383597302625 336.34692103476647 Z" fill-opacity="0.6980392156862745"/><path fill="none" stroke="rgb(0,0,0)" paint-order="fill stroke markers" d=" M 693.0221085723593 271.9738817463276 L 812.4354504102417 278.0588842435371" stroke-opacity="0.6980392156862745" stroke-linecap="round" stroke-linejoin="round" stroke-miterlimit="10" stroke-width="4"/><path fill="rgb(0,0,0)" stroke="none" paint-order="stroke fill markers" fill-rule="evenodd" d=" M 836.4043509909312 279.28027891890656 L 812.1301017413994 284.05110938870945 L 812.7407990790841 272.0666590983647 Z" fill-opacity="0.6980392156862745"/><path fill="none" stroke="rgb(0,0,0)" paint-order="fill stroke markers" d=" M 836.4043509909312 279.28027891890656 L 974.0119011505991 309.033262737213" stroke-opacity="0.6980392156862745" stroke-linecap="round" stroke-linejoin="round" stroke-miterlimit="10" stroke-width="4"/><path fill="rgb(0,0,0)" stroke="none" paint-order="stroke fill markers" fill-rule="evenodd" d=" M 997.4698411211559 314.10524975787393 L 972.7439043954339 314.8977477298522 L 975.2798979057643 303.16877774457384 Z" fill-opacity="0.6980392156862745"/><path fill="none" stroke="rgb(0,0,0)" paint-order="fill stroke markers" d=" M 693.0221085723593 271.9738817463276 L 595.980513972749 288.3467845986556" stroke-opacity="0.6980392156862745" stroke-linecap="round" stroke-linejoin="round" stroke-miterlimit="10" stroke-width="4"/><path fill="rgb(0,0,0)" stroke="none" paint-order="stroke fill markers" fill-rule="evenodd" d=" M 572.3149887954278 292.3396429835193 L 594.9822993765331 282.4304033043253 L 596.9787285689649 294.26316589298585 Z" fill-opacity="0.6980392156862745"/><path fill="none" stroke="rgb(0,0,0)" paint-order="fill stroke markers" d=" M 572.3149887954278 292.3396429835193 L 451.3606642495469 333.87951201947817" stroke-opacity="0.6980392156862745" stroke-linecap="round" stroke-linejoin="round" stroke-miterlimit="10" stroke-width="4"/><path fill="rgb(0,0,0)" stroke="none" paint-order="stroke fill markers" fill-rule="evenodd" d=" M 428.6619840846868 341.675018338723 L 449.4117876697357 328.2048419782631 L 453.3095408293581 339.5541820606932 Z" fill-opacity="0.6980392156862745"/><path fill="none" stroke="rgb(0,0,0)" paint-order="fill stroke markers" d=" M 428.6619840846868 341.675018338723 L 303.74095394845057 377.19178180882926" stroke-opacity="0.6980392156862745" stroke-linecap="round" stroke-linejoin="round" stroke-miterlimit="10" stroke-width="4"/><path fill="rgb(0,0,0)" stroke="none" paint-order="stroke fill markers" fill-rule="evenodd" d=" M 280.6558580190749 383.75519143580857 L 302.1001015417057 371.42050782648533 L 305.3818063551954 382.9630557911732 Z" fill-opacity="0.6980392156862745"/><path fill="rgb(46,125,50)" stroke="none" paint-order="stroke fill markers" d=" M 702.0221085723593 271.9738817463276 C 702.0221085723593 276.94444449480477 697.9926713208365 280.9738817463276 693.0221085723593 280.9738817463276 C 688.0515458238822 280.9738817463276 684.0221085723593 276.94444449480477 684.0221085723593 271.9738817463276 C 684.0221085723593 267.00331899785044 688.0515458238822 262.9738817463276 693.0221085723593 262.9738817463276 C 697.9926713208365 262.9738817463276 702.0221085723593 267.00331899785044 702.0221085723593 271.9738817463276 Z" fill-opacity="1"/><path fill="rgb(97,97,97)" stroke="none" paint-order="stroke fill markers" d=" M 581.3149887954278 292.3396429835193 C 581.3149887954278 297.31020573199646 577.285551543905 301.3396429835193 572.3149887954278 301.3396429835193 C 567.3444260469506 301.3396429835193 563.3149887954278 297.31020573199646 563.3149887954278 292.3396429835193 C 563.3149887954278 287.36908023504213 567.3444260469506 283.3396429835193 572.3149887954278 283.3396429835193 C 577.285551543905 283.3396429835193 581.3149887954278 287.36908023504213 581.3149887954278 292.3396429835193 Z" fill-opacity="1"/><path fill="rgb(0,0,0)" stroke="none" paint-order="stroke fill markers" d=" M 845.4043509909312 279.28027891890656 C 845.4043509909312 284.2508416673837 841.3749137394084 288.28027891890656 836.4043509909312 288.28027891890656 C 831.433788242454 288.28027891890656 827.4043509909312 284.2508416673837 827.4043509909312 279.28027891890656 C 827.4043509909312 274.3097161704294 831.433788242454 270.28027891890656 836.4043509909312 270.28027891890656 C 841.3749137394084 270.28027891890656 845.4043509909312 274.3097161704294 845.4043509909312 279.28027891890656 Z" fill-opacity="1"/><path fill="rgb(97,97,97)" stroke="none" paint-order="stroke fill markers" d=" M 611.5117873083299 178.04835169562492 C 611.5117873083299 183.01891444410205 607.482350056807 187.04835169562492 602.5117873083299 187.04835169562492 C 597.5412245598527 187.04835169562492 593.5117873083299 183.01891444410205 593.5117873083299 178.04835169562492 C 593.5117873083299 173.07778894714778 597.5412245598527 169.04835169562492 602.5117873083299 169.04835169562492 C 607.482350056807 169.04835169562492 611.5117873083299 173.07778894714778 611.5117873083299 178.04835169562492 Z" fill-opacity="1"/><path fill="rgb(211,47,47)" stroke="none" paint-order="stroke fill markers" d=" M 1154.4759671867678 347.4791801452176 C 1154.4759671867678 352.44974289369475 1150.4465299352448 356.4791801452176 1145.4759671867678 356.4791801452176 C 1140.5054044382907 356.4791801452176 1136.4759671867678 352.44974289369475 1136.4759671867678 347.4791801452176 C 1136.4759671867678 342.5086173967404 1140.5054044382907 338.4791801452176 1145.4759671867678 338.4791801452176 C 1150.4465299352448 338.4791801452176 1154.4759671867678 342.5086173967404 1154.4759671867678 347.4791801452176 Z" fill-opacity="1"/><path fill="rgb(97,97,97)" stroke="none" paint-order="stroke fill markers" d=" M 682.4876154071891 417.26317973252014 C 682.4876154071891 422.2337424809973 678.4581781556662 426.26317973252014 673.4876154071891 426.26317973252014 C 668.5170526587119 426.26317973252014 664.4876154071891 422.2337424809973 664.4876154071891 417.26317973252014 C 664.4876154071891 412.292616984043 668.5170526587119 408.26317973252014 673.4876154071891 408.26317973252014 C 678.4581781556662 408.26317973252014 682.4876154071891 412.292616984043 682.4876154071891 417.26317973252014 Z" fill-opacity="1"/><path fill="rgb(0,0,0)" stroke="none" paint-order="stroke fill markers" d=" M 1006.4698411211559 314.10524975787393 C 1006.4698411211559 319.0758125063511 1002.4404038696331 323.10524975787393 997.4698411211559 323.10524975787393 C 992.4992783726788 323.10524975787393 988.4698411211559 319.0758125063511 988.4698411211559 314.10524975787393 C 988.4698411211559 309.13468700939677 992.4992783726788 305.10524975787393 997.4698411211559 305.10524975787393 C 1002.4404038696331 305.10524975787393 1006.4698411211559 309.13468700939677 1006.4698411211559 314.10524975787393 Z" fill-opacity="1"/><path fill="rgb(97,97,97)" stroke="none" paint-order="stroke fill markers" d=" M 794.0902841107861 394.1763001338329 C 794.0902841107861 399.1468628823101 790.0608468592633 403.1763001338329 785.0902841107861 403.1763001338329 C 780.119721362309 403.1763001338329 776.0902841107861 399.1468628823101 776.0902841107861 394.1763001338329 C 776.0902841107861 389.20573738535575 780.119721362309 385.1763001338329 785.0902841107861 385.1763001338329 C 790.0608468592633 385.1763001338329 794.0902841107861 389.20573738535575 794.0902841107861 394.1763001338329 Z" fill-opacity="1"/><path fill="rgb(97,97,97)" stroke="none" paint-order="stroke fill markers" d=" M 787.494645694315 173.88197702369865 C 787.494645694315 178.8525397721758 783.4652084427921 182.88197702369865 778.494645694315 182.88197702369865 C 773.5240829458378 182.88197702369865 769.494645694315 178.8525397721758 769.494645694315 173.88197702369865 C 769.494645694315 168.91141427522152 773.5240829458378 164.88197702369865 778.494645694315 164.88197702369865 C 783.4652084427921 164.88197702369865 787.494645694315 168.91141427522152 787.494645694315 173.88197702369865 Z" fill-opacity="1"/><path fill="rgb(97,97,97)" stroke="none" paint-order="stroke fill markers" d=" M 957.6621168392699 420.55885379971727 C 957.6621168392699 425.52941654819443 953.632679587747 429.55885379971727 948.6621168392699 429.55885379971727 C 943.6915540907927 429.55885379971727 939.6621168392699 425.52941654819443 939.6621168392699 420.55885379971727 C 939.6621168392699 415.5882910512401 943.6915540907927 411.55885379971727 948.6621168392699 411.55885379971727 C 953.632679587747 411.55885379971727 957.6621168392699 415.5882910512401 957.6621168392699 420.55885379971727 Z" fill-opacity="1"/><path fill="rgb(97,97,97)" stroke="none" paint-order="stroke fill markers" d=" M 885.1100942580875 130.35076347498952 C 885.1100942580875 135.32132622346666 881.0806570065647 139.35076347498952 876.1100942580875 139.35076347498952 C 871.1395315096104 139.35076347498952 867.1100942580875 135.32132622346666 867.1100942580875 130.35076347498952 C 867.1100942580875 125.38020072651238 871.1395315096104 121.35076347498952 876.1100942580875 121.35076347498952 C 881.0806570065647 121.35076347498952 885.1100942580875 125.38020072651238 885.1100942580875 130.35076347498952 Z" fill-opacity="1"/><path fill="rgb(97,97,97)" stroke="none" paint-order="stroke fill markers" d=" M 1057.9158207696307 462.77093966513223 C 1057.9158207696307 467.7415024136094 1053.8863835181078 471.77093966513223 1048.9158207696307 471.77093966513223 C 1043.9452580211537 471.77093966513223 1039.9158207696307 467.7415024136094 1039.9158207696307 462.77093966513223 C 1039.9158207696307 457.80037691665507 1043.9452580211537 453.77093966513223 1048.9158207696307 453.77093966513223 C 1053.8863835181078 453.77093966513223 1057.9158207696307 457.80037691665507 1057.9158207696307 462.77093966513223 Z" fill-opacity="1"/><path fill="rgb(97,97,97)" stroke="none" paint-order="stroke fill markers" d=" M 1009.1080964877444 210.81755215593674 C 1009.1080964877444 215.78811490441387 1005.0786592362216 219.81755215593674 1000.1080964877444 219.81755215593674 C 995.1375337392673 219.81755215593674 991.1080964877444 215.78811490441387 991.1080964877444 210.81755215593674 C 991.1080964877444 205.8469894074596 995.1375337392673 201.81755215593674 1000.1080964877444 201.81755215593674 C 1005.0786592362216 201.81755215593674 1009.1080964877444 205.8469894074596 1009.1080964877444 210.81755215593674 Z" fill-opacity="1"/><path fill="rgb(97,97,97)" stroke="none" paint-order="stroke fill markers" d=" M 437.6619840846868 341.675018338723 C 437.6619840846868 346.6455810872002 433.632546833164 350.675018338723 428.6619840846868 350.675018338723 C 423.69142133620966 350.675018338723 419.6619840846868 346.6455810872002 419.6619840846868 341.675018338723 C 419.6619840846868 336.70445559024586 423.69142133620966 332.675018338723 428.6619840846868 332.675018338723 C 433.632546833164 332.675018338723 437.6619840846868 336.70445559024586 437.6619840846868 341.675018338723 Z" fill-opacity="1"/><path fill="rgb(97,97,97)" stroke="none" paint-order="stroke fill markers" d=" M 498.60568305287995 457.4944289319553 C 498.60568305287995 462.4649916804325 494.5762458013571 466.4944289319553 489.60568305287995 466.4944289319553 C 484.6351203044028 466.4944289319553 480.60568305287995 462.4649916804325 480.60568305287995 457.4944289319553 C 480.60568305287995 452.52386618347816 484.6351203044028 448.4944289319553 489.60568305287995 448.4944289319553 C 494.5762458013571 448.4944289319553 498.60568305287995 452.52386618347816 498.60568305287995 457.4944289319553 Z" fill-opacity="1"/><path fill="rgb(97,97,97)" stroke="none" paint-order="stroke fill markers" d=" M 482.6442380850198 215.43449904746646 C 482.6442380850198 220.4050617959436 478.614800833497 224.43449904746646 473.6442380850198 224.43449904746646 C 468.67367533654266 224.43449904746646 464.6442380850198 220.4050617959436 464.6442380850198 215.43449904746646 C 464.6442380850198 210.46393629898932 468.67367533654266 206.43449904746646 473.6442380850198 206.43449904746646 C 478.614800833497 206.43449904746646 482.6442380850198 210.46393629898932 482.6442380850198 215.43449904746646 Z" fill-opacity="1"/><path fill="rgb(97,97,97)" stroke="none" paint-order="stroke fill markers" d=" M 289.6558580190749 247.35738898318652 C 289.6558580190749 252.32795173166366 285.6264207675521 256.3573889831865 280.6558580190749 256.3573889831865 C 275.68529527059775 256.3573889831865 271.6558580190749 252.32795173166366 271.6558580190749 247.35738898318652 C 271.6558580190749 242.3868262347094 275.68529527059775 238.35738898318652 280.6558580190749 238.35738898318652 C 285.6264207675521 238.35738898318652 289.6558580190749 242.3868262347094 289.6558580190749 247.35738898318652 Z" fill-opacity="1"/><path fill="rgb(21,101,192)" stroke="none" paint-order="stroke fill markers" d=" M 289.6558580190749 383.75519143580857 C 289.6558580190749 388.72575418428573 285.6264207675521 392.75519143580857 280.6558580190749 392.75519143580857 C 275.68529527059775 392.75519143580857 271.6558580190749 388.72575418428573 271.6558580190749 383.75519143580857 C 271.6558580190749 378.7846286873314 275.68529527059775 374.75519143580857 280.6558580190749 374.75519143580857 C 285.6264207675521 374.75519143580857 289.6558580190749 378.7846286873314 289.6558580190749 383.75519143580857 Z" fill-opacity="1"/><text fill="rgb(21,101,192)" stroke="none" font-family="geogebra-sans-serif, sans-serif" font-size="32px" font-style="normal" font-weight="normal" text-decoration="normal" x="276" y="353" text-anchor="start" dominant-baseline="alphabetic" fill-opacity="1">A</text><text fill="rgb(211,47,47)" stroke="none" font-family="geogebra-sans-serif, sans-serif" font-size="32px" font-style="normal" font-weight="normal" text-decoration="normal" x="1139" y="321" text-anchor="start" dominant-baseline="alphabetic" fill-opacity="1">B</text><text fill="rgb(46,125,50)" stroke="none" font-family="geogebra-sans-serif, sans-serif" font-size="32px" font-style="normal" font-weight="normal" text-decoration="normal" x="692" y="244" text-anchor="start" dominant-baseline="alphabetic" fill-opacity="1">K</text></g></g></svg>