<svg version="1.1" xmlns="http://www.w3.org/2000/svg" xmlns:xlink="http://www.w3.org/1999/xlink" width="1384" height="676"><defs><clipPath id="CtFeTZtglBrc"><path fill="none" stroke="none" d=" M 0 0 L 1384 0 L 1384 676 L 0 676 L 0 0 Z"/></clipPath></defs><g transform="scale(1,1)" clip-path="url(#CtFeTZtglBrc)"><g><rect fill="rgb(255,255,255)" stroke="none" x="0" y="0" width="1384" height="676" fill-opacity="1"/><path fill="none" stroke="rgb(21,101,192)" paint-order="fill stroke markers" d=" M 679.7945534677965 345.460647358329 C 679.7945534677965 427.1613859986402 613.5630186471035 493.3929208193332 531.8622800067922 493.3929208193332 C 450.1615413664809 493.3929208193332 383.9300065457878 427.1613859986402 383.9300065457878 345.460647358329 C 383.9300065457878 263.7599087180178 450.1615413664809 197.52837389732483 531.8622800067922 197.52837389732483 C 613.5630186471035 197.52837389732483 679.7945534677965 263.7599087180178 679.7945534677965 345.460647358329 Z" stroke-opacity="0.6980392156862745" stroke-linejoin="round" stroke-miterlimit="10" stroke-width="6.5" stroke-dasharray="14.5,8"/><path fill="none" stroke="rgb(211,47,47)" paint-order="fill stroke markers" d=" M 901.9895300484388 379.14600259061115 C 901.9895300484388 460.84674123092236 835.7579952277458 527.0782760516154 754.0572565874345 527.0782760516154 C 672.3565179471232 527.0782760516154 606.1249831264302 460.84674123092236 606.1249831264302 379.14600259061115 C 606.1249831264302 297.44526395029993 672.3565179471232 231.21372912960695 754.0572565874345 231.21372912960695 C 835.7579952277458 231.21372912960695 901.9895300484388 297.44526395029993 901.9895300484388 379.14600259061115 Z" stroke-opacity="0.6980392156862745" stroke-linejoin="round" stroke-miterlimit="10" stroke-width="6.5" stroke-dasharray="14.5,8"/><path fill="rgb(21,101,192)" stroke="none" paint-order="stroke fill markers" d=" M 540.8622800067922 345.460647358329 C 540.8622800067922 350.4312101068062 536.8328427552693 354.460647358329 531.8622800067922 354.460647358329 C 526.891717258315 354.460647358329 522.8622800067922 350.4312101068062 522.8622800067922 345.460647358329 C 522.8622800067922 340.49008460985186 526.891717258315 336.460647358329 531.8622800067922 336.460647358329 C 536.8328427552693 336.460647358329 540.8622800067922 340.49008460985186 540.8622800067922 345.460647358329 Z" fill-opacity="1"/><path fill="rgb(0,0,0)" stroke="none" paint-order="stroke fill markers" d=" M 500 442 C 500 446.97056274847716 495.97056274847716 451 491 451 C 486.02943725152284 451 482 446.97056274847716 482 442 C 482 437.02943725152284 486.02943725152284 433 491 433 C 495.97056274847716 433 500 437.02943725152284 500 442 Z" fill-opacity="1"/><path fill="rgb(0,0,0)" stroke="none" paint-order="stroke fill markers" d=" M 647 404 C 647 408.97056274847716 642.9705627484772 413 638 413 C 633.0294372515228 413 629 408.97056274847716 629 404 C 629 399.02943725152284 633.0294372515228 395 638 395 C 642.9705627484772 395 647 399.02943725152284 647 404 Z" fill-opacity="1"/><path fill="rgb(0,0,0)" stroke="none" paint-order="stroke fill markers" d=" M 576.8419139147273 234.94848082866906 C 576.8419139147273 239.9190435771462 572.8124766632045 243.94848082866906 567.8419139147273 243.94848082866906 C 562.8713511662502 243.94848082866906 558.8419139147273 239.9190435771462 558.8419139147273 234.94848082866906 C 558.8419139147273 229.97791808019193 562.8713511662502 225.94848082866906 567.8419139147273 225.94848082866906 C 572.8124766632045 225.94848082866906 576.8419139147273 229.97791808019193 576.8419139147273 234.94848082866906 Z" fill-opacity="1"/><path fill="rgb(211,47,47)" stroke="none" paint-order="stroke fill markers" d=" M 763.0572565874345 379.14600259061115 C 763.0572565874345 384.1165653390883 759.0278193359117 388.14600259061115 754.0572565874345 388.14600259061115 C 749.0866938389573 388.14600259061115 745.0572565874345 384.1165653390883 745.0572565874345 379.14600259061115 C 745.0572565874345 374.175439842134 749.0866938389573 370.14600259061115 754.0572565874345 370.14600259061115 C 759.0278193359117 370.14600259061115 763.0572565874345 374.175439842134 763.0572565874345 379.14600259061115 Z" fill-opacity="1"/><path fill="rgb(0,0,0)" stroke="none" paint-order="stroke fill markers" d=" M 784.0661670428168 468.91134726360826 C 784.0661670428168 473.8819100120854 780.036729791294 477.91134726360826 775.0661670428168 477.91134726360826 C 770.0956042943396 477.91134726360826 766.0661670428168 473.8819100120854 766.0661670428168 468.91134726360826 C 766.0661670428168 463.9407845151311 770.0956042943396 459.91134726360826 775.0661670428168 459.91134726360826 C 780.036729791294 459.91134726360826 784.0661670428168 463.9407845151311 784.0661670428168 468.91134726360826 Z" fill-opacity="1"/><path fill="rgb(0,0,0)" stroke="none" paint-order="stroke fill markers" d=" M 478 290 C 478 294.97056274847716 473.97056274847716 299 469 299 C 464.02943725152284 299 460 294.97056274847716 460 290 C 460 285.02943725152284 464.02943725152284 281 469 281 C 473.97056274847716 281 478 285.02943725152284 478 290 Z" fill-opacity="1"/><text fill="rgb(21,101,192)" stroke="none" font-family="geogebra-sans-serif, sans-serif" font-size="32px" font-style="normal" font-weight="normal" text-decoration="normal" x="543" y="319" text-anchor="start" dominant-baseline="alphabetic" fill-opacity="1">A</text><text fill="rgb(211,47,47)" stroke="none" font-family="geogebra-sans-serif, sans-serif" font-size="32px" font-style="normal" font-weight="normal" text-decoration="normal" x="765" y="351" text-anchor="start" dominant-baseline="alphabetic" fill-opacity="1">B</text></g></g></svg>