<svg version="1.1" xmlns="http://www.w3.org/2000/svg" xmlns:xlink="http://www.w3.org/1999/xlink" width="1060" height="676"><defs><clipPath id="syxpwcnZzvdt"><path fill="none" stroke="none" d=" M 0 0 L 1060 0 L 1060 676 L 0 676 L 0 0 Z"/></clipPath></defs><g transform="scale(1,1)" clip-path="url(#syxpwcnZzvdt)"><g><rect fill="rgb(255,255,255)" stroke="none" x="0" y="0" width="1060" height="676" fill-opacity="1"/><path fill="none" stroke="rgb(0,0,0)" paint-order="fill stroke markers" d=" M 624.1918302016949 316.9409710374936 C 624.1918302016949 439.4920789979603 524.8445279706551 538.8393812289996 402.2934200101882 538.8393812289996 C 279.74231204972114 538.8393812289996 180.39500981868153 439.4920789979603 180.39500981868153 316.9409710374936 C 180.39500981868153 194.38986307702692 279.74231204972114 95.04256084598757 402.2934200101882 95.04256084598757 C 524.8445279706551 95.04256084598757 624.1918302016949 194.38986307702692 624.1918302016949 316.9409710374936 Z" stroke-opacity="0.6980392156862745" stroke-linejoin="round" stroke-miterlimit="10" stroke-width="3.5" stroke-dasharray="11.5,8"/><path fill="none" stroke="rgb(211,47,47)" paint-order="fill stroke markers" d=" M 958.8984101915069 260.7500000000001 C 958.8984101915069 383.30110796046677 859.5511079604672 482.6484101915062 737.0000000000002 482.6484101915062 C 614.4488920395332 482.6484101915062 515.1015898084936 383.30110796046677 515.1015898084936 260.7500000000001 C 515.1015898084936 138.1988920395334 614.4488920395332 38.851589808494055 737.0000000000002 38.851589808494055 C 859.5511079604672 38.851589808494055 958.8984101915069 138.1988920395334 958.8984101915069 260.7500000000001 Z" stroke-opacity="0.6980392156862745" stroke-linejoin="round" stroke-miterlimit="10" stroke-width="6.5" stroke-dasharray="14.5,8"/><path fill="none" stroke="rgb(0,0,0)" paint-order="fill stroke markers" d=" M 402.2934200101882 316.9409710374936 L 285.36139039778413 505.5299550642437" stroke-opacity="0.2" stroke-linecap="round" stroke-linejoin="round" stroke-miterlimit="10" stroke-width="10"/><path fill="none" stroke="rgb(0,0,0)" paint-order="fill stroke markers" d=" M 402.2934200101882 316.9409710374936 L 285.36139039778413 505.5299550642437" stroke-opacity="0.6980392156862745" stroke-linecap="round" stroke-linejoin="round" stroke-miterlimit="10" stroke-width="4"/><text fill="rgb(0,0,0)" stroke="none" font-family="geogebra-sans-serif, sans-serif" font-size="16px" font-style="normal" font-weight="normal" text-decoration="normal" x="365" y="449" text-anchor="start" dominant-baseline="alphabetic" fill-opacity="1">1</text><text fill="none" stroke="rgb(255,255,255)" font-family="geogebra-sans-serif, sans-serif" font-size="16px" font-style="normal" font-weight="normal" text-decoration="normal" x="365" y="449" text-anchor="start" dominant-baseline="alphabetic" stroke-opacity="1" stroke-linejoin="bevel" stroke-miterlimit="10" stroke-width="3">1</text><text fill="rgb(0,0,0)" stroke="none" font-family="geogebra-sans-serif, sans-serif" font-size="16px" font-style="normal" font-weight="normal" text-decoration="normal" x="365" y="449" text-anchor="start" dominant-baseline="alphabetic" fill-opacity="1">1</text><path fill="none" stroke="rgb(0,0,0)" paint-order="fill stroke markers" d=" M 271.9385074196126 344.02606590330385 L 402.2934200101882 316.9409710374936" stroke-opacity="0.6980392156862745" stroke-linecap="round" stroke-linejoin="round" stroke-miterlimit="10" stroke-width="4"/><path fill="rgb(46,125,50)" stroke="none" paint-order="stroke fill markers" d=" M 411.2934200101882 316.9409710374936 C 411.2934200101882 321.9115337859708 407.26398275866535 325.9409710374936 402.2934200101882 325.9409710374936 C 397.322857261711 325.9409710374936 393.2934200101882 321.9115337859708 393.2934200101882 316.9409710374936 C 393.2934200101882 311.97040828901646 397.322857261711 307.9409710374936 402.2934200101882 307.9409710374936 C 407.26398275866535 307.9409710374936 411.2934200101882 311.97040828901646 411.2934200101882 316.9409710374936 Z" fill-opacity="1"/><path fill="rgb(0,0,0)" stroke="none" paint-order="stroke fill markers" d=" M 569 299.7500000000001 C 569 304.7205627484773 564.9705627484772 308.7500000000001 560 308.7500000000001 C 555.0294372515228 308.7500000000001 551 304.7205627484773 551 299.7500000000001 C 551 294.77943725152295 555.0294372515228 290.7500000000001 560 290.7500000000001 C 564.9705627484772 290.7500000000001 569 294.77943725152295 569 299.7500000000001 Z" fill-opacity="1"/><path fill="rgb(0,0,0)" stroke="none" paint-order="stroke fill markers" d=" M 307.9999999999999 209.7500000000002 C 307.9999999999999 214.72056274847733 303.97056274847705 218.7500000000002 298.9999999999999 218.7500000000002 C 294.0294372515227 218.7500000000002 289.9999999999999 214.72056274847733 289.9999999999999 209.7500000000002 C 289.9999999999999 204.77943725152306 294.0294372515227 200.7500000000002 298.9999999999999 200.7500000000002 C 303.97056274847705 200.7500000000002 307.9999999999999 204.77943725152306 307.9999999999999 209.7500000000002 Z" fill-opacity="1"/><path fill="rgb(211,47,47)" stroke="none" paint-order="stroke fill markers" d=" M 746.0000000000002 260.7500000000001 C 746.0000000000002 265.7205627484773 741.9705627484774 269.7500000000001 737.0000000000002 269.7500000000001 C 732.0294372515231 269.7500000000001 728.0000000000002 265.7205627484773 728.0000000000002 260.7500000000001 C 728.0000000000002 255.77943725152298 732.0294372515231 251.7500000000001 737.0000000000002 251.7500000000001 C 741.9705627484774 251.7500000000001 746.0000000000002 255.77943725152298 746.0000000000002 260.7500000000001 Z" fill-opacity="1"/><path fill="rgb(0,0,0)" stroke="none" paint-order="stroke fill markers" d=" M 493 445 C 493 449.97056274847716 488.97056274847716 454 484 454 C 479.02943725152284 454 475 449.97056274847716 475 445 C 475 440.02943725152284 479.02943725152284 436 484 436 C 488.97056274847716 436 493 440.02943725152284 493 445 Z" fill-opacity="1"/><path fill="rgb(0,0,0)" stroke="none" paint-order="stroke fill markers" d=" M 286.36139039778413 505.5299550642437 C 286.36139039778413 506.0822398140745 285.9136751476149 506.5299550642437 285.36139039778413 506.5299550642437 C 284.80910564795334 506.5299550642437 284.36139039778413 506.0822398140745 284.36139039778413 505.5299550642437 C 284.36139039778413 504.97767031441293 284.80910564795334 504.5299550642437 285.36139039778413 504.5299550642437 C 285.9136751476149 504.5299550642437 286.36139039778413 504.97767031441293 286.36139039778413 505.5299550642437 Z" fill-opacity="1"/><path fill="rgb(21,101,192)" stroke="none" paint-order="stroke fill markers" d=" M 280.9385074196126 344.02606590330385 C 280.9385074196126 348.996628651781 276.9090701680898 353.02606590330385 271.9385074196126 353.02606590330385 C 266.96794467113546 353.02606590330385 262.9385074196126 348.996628651781 262.9385074196126 344.02606590330385 C 262.9385074196126 339.0555031548267 266.96794467113546 335.02606590330385 271.9385074196126 335.02606590330385 C 276.9090701680898 335.02606590330385 280.9385074196126 339.0555031548267 280.9385074196126 344.02606590330385 Z" fill-opacity="1"/><text fill="rgb(21,101,192)" stroke="none" font-family="geogebra-sans-serif, sans-serif" font-size="32px" font-style="normal" font-weight="normal" text-decoration="normal" x="254" y="316" text-anchor="start" dominant-baseline="alphabetic" fill-opacity="1">A</text><text fill="rgb(211,47,47)" stroke="none" font-family="geogebra-sans-serif, sans-serif" font-size="32px" font-style="normal" font-weight="normal" text-decoration="normal" x="752" y="225" text-anchor="start" dominant-baseline="alphabetic" fill-opacity="1">B</text><text fill="rgb(46,125,50)" stroke="none" font-family="geogebra-sans-serif, sans-serif" font-size="32px" font-style="normal" font-weight="normal" text-decoration="normal" x="370" y="282" text-anchor="start" dominant-baseline="alphabetic" fill-opacity="1">K</text></g></g></svg>