<svg version="1.1" xmlns="http://www.w3.org/2000/svg" xmlns:xlink="http://www.w3.org/1999/xlink" width="1384" height="676"><defs><clipPath id="RbRneMTgdAQy"><path fill="none" stroke="none" d=" M 0 0 L 1384 0 L 1384 676 L 0 676 L 0 0 Z"/></clipPath></defs><g transform="scale(1,1)" clip-path="url(#RbRneMTgdAQy)"><g><rect fill="rgb(255,255,255)" stroke="none" x="0" y="0" width="1384" height="676" fill-opacity="1"/><path fill="none" stroke="rgb(97,97,97)" paint-order="fill stroke markers" d=" M 798.1421642341813 298.47920217491463 C 798.1421642341813 412.77452333190166 705.4874995514281 505.4291880146547 591.1921783944407 505.4291880146547 C 476.8968572374534 505.4291880146547 384.2421925547002 412.77452333190166 384.2421925547002 298.47920217491463 C 384.2421925547002 184.18388101792755 476.8968572374534 91.52921633517457 591.1921783944407 91.52921633517457 C 705.4874995514281 91.52921633517457 798.1421642341813 184.18388101792755 798.1421642341813 298.47920217491463 Z" stroke-opacity="0.6980392156862745" stroke-linejoin="round" stroke-miterlimit="10" stroke-width="3.5" stroke-dasharray="11.5,8"/><path fill="none" stroke="rgb(97,97,97)" paint-order="fill stroke markers" d=" M 1271.1802290681062 285.24422111882296 C 1271.1802290681062 399.53954227581 1178.525564385353 492.19420695856303 1064.2302432283657 492.19420695856303 C 949.9349220713784 492.19420695856303 857.2802573886252 399.53954227581 857.2802573886252 285.24422111882296 C 857.2802573886252 170.94889996183588 949.9349220713784 78.2942352790829 1064.2302432283657 78.2942352790829 C 1178.525564385353 78.2942352790829 1271.1802290681062 170.94889996183588 1271.1802290681062 285.24422111882296 Z" stroke-opacity="0.6980392156862745" stroke-linejoin="round" stroke-miterlimit="10" stroke-width="3.5" stroke-dasharray="11.5,8"/><path fill="none" stroke="rgb(97,97,97)" paint-order="fill stroke markers" d=" M 636.0565243275768 367.7823237172617 C 636.0565243275768 482.07764487424873 543.4018596448235 574.7323095570018 429.10653848783625 574.7323095570018 C 314.81121733084893 574.7323095570018 222.1565526480957 482.07764487424873 222.1565526480957 367.7823237172617 C 222.1565526480957 253.48700256027462 314.81121733084893 160.83233787752164 429.10653848783625 160.83233787752164 C 543.4018596448235 160.83233787752164 636.0565243275768 253.48700256027462 636.0565243275768 367.7823237172617 Z" stroke-opacity="0.6980392156862745" stroke-linejoin="round" stroke-miterlimit="10" stroke-width="3.5" stroke-dasharray="11.5,8"/><path fill="none" stroke="rgb(97,97,97)" paint-order="fill stroke markers" d=" M 967.6078856128311 303.43058270830943 C 967.6078856128311 417.72590386529646 874.9532209300778 510.3805685480495 760.6578997730905 510.3805685480495 C 646.3625786161033 510.3805685480495 553.70791393335 417.72590386529646 553.70791393335 303.43058270830943 C 553.70791393335 189.13526155132234 646.3625786161033 96.48059686856936 760.6578997730905 96.48059686856936 C 874.9532209300778 96.48059686856936 967.6078856128311 189.13526155132234 967.6078856128311 303.43058270830943 Z" stroke-opacity="0.6980392156862745" stroke-linejoin="round" stroke-miterlimit="10" stroke-width="3.5" stroke-dasharray="11.5,8"/><path fill="none" stroke="rgb(97,97,97)" paint-order="fill stroke markers" d=" M 1139.6788452672035 323.0158951892949 C 1139.6788452672035 437.3112163462819 1047.0241805844503 529.965881029035 932.728859427463 529.965881029035 C 818.4335382704758 529.965881029035 725.7788735877225 437.3112163462819 725.7788735877225 323.0158951892949 C 725.7788735877225 208.7205740323078 818.4335382704758 116.06590934955483 932.728859427463 116.06590934955483 C 1047.0241805844503 116.06590934955483 1139.6788452672035 208.7205740323078 1139.6788452672035 323.0158951892949 Z" stroke-opacity="0.6980392156862745" stroke-linejoin="round" stroke-miterlimit="10" stroke-width="3.5" stroke-dasharray="11.5,8"/><path fill="none" stroke="rgb(0,0,0)" paint-order="fill stroke markers" d=" M 932.728859427463 323.0158951892949 L 1041.162951499034 291.86993257299264" stroke-opacity="0.6980392156862745" stroke-linecap="round" stroke-linejoin="round" stroke-miterlimit="10" stroke-width="4"/><path fill="rgb(0,0,0)" stroke="none" paint-order="stroke fill markers" fill-rule="evenodd" d=" M 1064.2302432283657 285.24422111882296 L 1042.8193793625765 297.63675550532554 L 1039.5065236354917 286.10310964065974 Z" fill-opacity="0.6980392156862745"/><path fill="none" stroke="rgb(0,0,0)" paint-order="fill stroke markers" d=" M 429.10653848783625 367.7823237172617 L 569.1247123080448 307.91461104394426" stroke-opacity="0.6980392156862745" stroke-linecap="round" stroke-linejoin="round" stroke-miterlimit="10" stroke-width="4"/><path fill="rgb(0,0,0)" stroke="none" paint-order="stroke fill markers" fill-rule="evenodd" d=" M 591.1921783944407 298.47920217491463 L 571.4835645253022 313.4314775655433 L 566.7658600907873 302.39774452234525 Z" fill-opacity="0.6980392156862745"/><path fill="none" stroke="rgb(0,0,0)" paint-order="fill stroke markers" d=" M 591.1921783944407 298.47920217491463 L 736.6681372321465 302.72965958191156" stroke-opacity="0.6980392156862745" stroke-linecap="round" stroke-linejoin="round" stroke-miterlimit="10" stroke-width="4"/><path fill="rgb(0,0,0)" stroke="none" paint-order="stroke fill markers" fill-rule="evenodd" d=" M 760.6578997730905 303.43058270830943 L 736.492906450547 308.72710021714755 L 736.8433680137459 296.7322189466756 Z" fill-opacity="0.6980392156862745"/><path fill="none" stroke="rgb(0,0,0)" paint-order="fill stroke markers" d=" M 760.6578997730905 303.43058270830943 L 908.882828023829 320.3017127531089" stroke-opacity="0.6980392156862745" stroke-linecap="round" stroke-linejoin="round" stroke-miterlimit="10" stroke-width="4"/><path fill="rgb(0,0,0)" stroke="none" paint-order="stroke fill markers" fill-rule="evenodd" d=" M 932.728859427463 323.0158951892949 L 908.2042824147825 326.2632206040174 L 909.5613736328755 314.3402049022004 Z" fill-opacity="0.6980392156862745"/><path fill="rgb(0,0,0)" stroke="none" paint-order="stroke fill markers" d=" M 600.1921783944407 298.47920217491463 C 600.1921783944407 303.4497649233918 596.1627411429179 307.47920217491463 591.1921783944407 307.47920217491463 C 586.2216156459635 307.47920217491463 582.1921783944407 303.4497649233918 582.1921783944407 298.47920217491463 C 582.1921783944407 293.50863942643747 586.2216156459635 289.47920217491463 591.1921783944407 289.47920217491463 C 596.1627411429179 289.47920217491463 600.1921783944407 293.50863942643747 600.1921783944407 298.47920217491463 Z" fill-opacity="1"/><path fill="rgb(21,101,192)" stroke="none" paint-order="stroke fill markers" d=" M 438.10653848783625 367.7823237172617 C 438.10653848783625 372.75288646573887 434.0771012363134 376.7823237172617 429.10653848783625 376.7823237172617 C 424.1359757393591 376.7823237172617 420.10653848783625 372.75288646573887 420.10653848783625 367.7823237172617 C 420.10653848783625 362.81176096878454 424.1359757393591 358.7823237172617 429.10653848783625 358.7823237172617 C 434.0771012363134 358.7823237172617 438.10653848783625 362.81176096878454 438.10653848783625 367.7823237172617 Z" fill-opacity="1"/><path fill="rgb(0,0,0)" stroke="none" paint-order="stroke fill markers" d=" M 769.6578997730905 303.43058270830943 C 769.6578997730905 308.4011454567866 765.6284625215677 312.43058270830943 760.6578997730905 312.43058270830943 C 755.6873370246134 312.43058270830943 751.6578997730905 308.4011454567866 751.6578997730905 303.43058270830943 C 751.6578997730905 298.46001995983227 755.6873370246134 294.43058270830943 760.6578997730905 294.43058270830943 C 765.6284625215677 294.43058270830943 769.6578997730905 298.46001995983227 769.6578997730905 303.43058270830943 Z" fill-opacity="1"/><path fill="rgb(97,97,97)" stroke="none" paint-order="stroke fill markers" d=" M 503.8572303882875 198.50926584588728 C 503.8572303882875 203.47982859436442 499.8277931367647 207.50926584588728 494.8572303882875 207.50926584588728 C 489.88666763981036 207.50926584588728 485.8572303882875 203.47982859436442 485.8572303882875 198.50926584588728 C 485.8572303882875 193.53870309741015 489.88666763981036 189.50926584588728 494.8572303882875 189.50926584588728 C 499.8277931367647 189.50926584588728 503.8572303882875 193.53870309741015 503.8572303882875 198.50926584588728 Z" fill-opacity="1"/><path fill="rgb(211,47,47)" stroke="none" paint-order="stroke fill markers" d=" M 1073.2302432283657 285.24422111882296 C 1073.2302432283657 290.2147838673001 1069.2008059768427 294.24422111882296 1064.2302432283657 294.24422111882296 C 1059.2596804798886 294.24422111882296 1055.2302432283657 290.2147838673001 1055.2302432283657 285.24422111882296 C 1055.2302432283657 280.2736583703458 1059.2596804798886 276.24422111882296 1064.2302432283657 276.24422111882296 C 1069.2008059768427 276.24422111882296 1073.2302432283657 280.2736583703458 1073.2302432283657 285.24422111882296 Z" fill-opacity="1"/><path fill="rgb(97,97,97)" stroke="none" paint-order="stroke fill markers" d=" M 579.4005785292316 453.1183280986984 C 579.4005785292316 458.08889084717555 575.3711412777087 462.1183280986984 570.4005785292316 462.1183280986984 C 565.4300157807544 462.1183280986984 561.4005785292316 458.08889084717555 561.4005785292316 453.1183280986984 C 561.4005785292316 448.1477653502212 565.4300157807544 444.1183280986984 570.4005785292316 444.1183280986984 C 575.3711412777087 444.1183280986984 579.4005785292316 448.1477653502212 579.4005785292316 453.1183280986984 Z" fill-opacity="1"/><path fill="rgb(0,0,0)" stroke="none" paint-order="stroke fill markers" d=" M 941.728859427463 323.0158951892949 C 941.728859427463 327.98645793777206 937.6994221759402 332.0158951892949 932.728859427463 332.0158951892949 C 927.7582966789859 332.0158951892949 923.728859427463 327.98645793777206 923.728859427463 323.0158951892949 C 923.728859427463 318.04533244081773 927.7582966789859 314.0158951892949 932.728859427463 314.0158951892949 C 937.6994221759402 314.0158951892949 941.728859427463 318.04533244081773 941.728859427463 323.0158951892949 Z" fill-opacity="1"/><path fill="rgb(97,97,97)" stroke="none" paint-order="stroke fill markers" d=" M 698.1852335471527 428.54573444635713 C 698.1852335471527 433.5162971948343 694.1557962956299 437.54573444635713 689.1852335471527 437.54573444635713 C 684.2146707986756 437.54573444635713 680.1852335471527 433.5162971948343 680.1852335471527 428.54573444635713 C 680.1852335471527 423.57517169787997 684.2146707986756 419.54573444635713 689.1852335471527 419.54573444635713 C 694.1557962956299 419.54573444635713 698.1852335471527 423.57517169787997 698.1852335471527 428.54573444635713 Z" fill-opacity="1"/><path fill="rgb(97,97,97)" stroke="none" paint-order="stroke fill markers" d=" M 691.1651448429637 194.07477172644502 C 691.1651448429637 199.04533447492216 687.1357075914409 203.07477172644502 682.1651448429637 203.07477172644502 C 677.1945820944866 203.07477172644502 673.1651448429637 199.04533447492216 673.1651448429637 194.07477172644502 C 673.1651448429637 189.1042089779679 677.1945820944866 185.07477172644502 682.1651448429637 185.07477172644502 C 687.1357075914409 185.07477172644502 691.1651448429637 189.1042089779679 691.1651448429637 194.07477172644502 Z" fill-opacity="1"/><path fill="rgb(97,97,97)" stroke="none" paint-order="stroke fill markers" d=" M 872.2834334110402 456.6260892631131 C 872.2834334110402 461.59665201159027 868.2539961595173 465.6260892631131 863.2834334110402 465.6260892631131 C 858.312870662563 465.6260892631131 854.2834334110402 461.59665201159027 854.2834334110402 456.6260892631131 C 854.2834334110402 451.65552651463594 858.312870662563 447.6260892631131 863.2834334110402 447.6260892631131 C 868.2539961595173 447.6260892631131 872.2834334110402 451.65552651463594 872.2834334110402 456.6260892631131 Z" fill-opacity="1"/><path fill="rgb(97,97,97)" stroke="none" paint-order="stroke fill markers" d=" M 795.0624576649611 147.74218627879773 C 795.0624576649611 152.71274902727487 791.0330204134383 156.74218627879773 786.0624576649611 156.74218627879773 C 781.091894916484 156.74218627879773 777.0624576649611 152.71274902727487 777.0624576649611 147.74218627879773 C 777.0624576649611 142.7716235303206 781.091894916484 138.74218627879773 786.0624576649611 138.74218627879773 C 791.0330204134383 138.74218627879773 795.0624576649611 142.7716235303206 795.0624576649611 147.74218627879773 Z" fill-opacity="1"/><path fill="rgb(97,97,97)" stroke="none" paint-order="stroke fill markers" d=" M 978.9887817147131 501.5546569699226 C 978.9887817147131 506.52521971839974 974.9593444631903 510.5546569699226 969.9887817147131 510.5546569699226 C 965.018218966236 510.5546569699226 960.9887817147131 506.52521971839974 960.9887817147131 501.5546569699226 C 960.9887817147131 496.5840942214454 965.018218966236 492.5546569699226 969.9887817147131 492.5546569699226 C 974.9593444631903 492.5546569699226 978.9887817147131 496.5840942214454 978.9887817147131 501.5546569699226 Z" fill-opacity="1"/><path fill="rgb(97,97,97)" stroke="none" paint-order="stroke fill markers" d=" M 927.0401253037144 233.38726846990335 C 927.0401253037144 238.35783121838048 923.0106880521915 242.38726846990335 918.0401253037144 242.38726846990335 C 913.0695625552372 242.38726846990335 909.0401253037144 238.35783121838048 909.0401253037144 233.38726846990335 C 909.0401253037144 228.4167057214262 913.0695625552372 224.38726846990335 918.0401253037144 224.38726846990335 C 923.0106880521915 224.38726846990335 927.0401253037144 228.4167057214262 927.0401253037144 233.38726846990335 Z" fill-opacity="1"/><path fill="rgb(97,97,97)" stroke="none" paint-order="stroke fill markers" d=" M 326.1205322251352 326.052439365198 C 326.1205322251352 331.02300211367515 322.09109497361237 335.052439365198 317.1205322251352 335.052439365198 C 312.14996947665804 335.052439365198 308.1205322251352 331.02300211367515 308.1205322251352 326.052439365198 C 308.1205322251352 321.0818766167208 312.14996947665804 317.052439365198 317.1205322251352 317.052439365198 C 322.09109497361237 317.052439365198 326.1205322251352 321.0818766167208 326.1205322251352 326.052439365198 Z" fill-opacity="1"/><path fill="rgb(97,97,97)" stroke="none" paint-order="stroke fill markers" d=" M 383.68525959948505 495.9385860065714 C 383.68525959948505 500.9091487550486 379.6558223479622 504.9385860065714 374.68525959948505 504.9385860065714 C 369.7146968510079 504.9385860065714 365.68525959948505 500.9091487550486 365.68525959948505 495.9385860065714 C 365.68525959948505 490.96802325809426 369.7146968510079 486.9385860065714 374.68525959948505 486.9385860065714 C 379.6558223479622 486.9385860065714 383.68525959948505 490.96802325809426 383.68525959948505 495.9385860065714 Z" fill-opacity="1"/><text fill="rgb(21,101,192)" stroke="none" font-family="geogebra-sans-serif, sans-serif" font-size="32px" font-style="normal" font-weight="normal" text-decoration="normal" x="417" y="336" text-anchor="start" dominant-baseline="alphabetic" fill-opacity="1">A</text><text fill="rgb(211,47,47)" stroke="none" font-family="geogebra-sans-serif, sans-serif" font-size="32px" font-style="normal" font-weight="normal" text-decoration="normal" x="1047" y="252" text-anchor="start" dominant-baseline="alphabetic" fill-opacity="1">B</text></g></g></svg>