<svg version="1.1" xmlns="http://www.w3.org/2000/svg" xmlns:xlink="http://www.w3.org/1999/xlink" width="1384" height="676"><defs><clipPath id="OmCBLcmIgcow"><path fill="none" stroke="none" d=" M 0 0 L 1384 0 L 1384 676 L 0 676 L 0 0 Z"/></clipPath></defs><g transform="scale(1,1)" clip-path="url(#OmCBLcmIgcow)"><g><rect fill="rgb(255,255,255)" stroke="none" x="0" y="0" width="1384" height="676" fill-opacity="1"/><path fill="rgb(21,101,192)" stroke="none" paint-order="stroke fill markers" fill-rule="evenodd" d=" M 464.5198506995573 260.12409847592784 L 464.5198506995573 190.17646500070535 L 563.4883108293941 173.8057422724618 L 629.5742736369937 154.63334737316993 L 719.8219481226632 152.49674367991338 L 769.8811829115075 130.17303086867219 L 833.4699406162556 171.43807576217867 L 908.0176118828857 241.52100446656016 L 858.4995580106778 300.64501960905966 L 807.0873709302431 278.99778294361363 L 723.2043288516392 265.46826002770985 L 665.9721563021772 277.30769265212103 L 584.3075964378096 293.321928346156 Z" fill-opacity="0.09803921568627451"/><path fill="rgb(46,125,50)" stroke="none" paint-order="stroke fill markers" fill-rule="evenodd" d=" M 511.81184800545554 397.2450017411692 L 565.7220445564814 380.5585123325184 L 660.7066765749554 386.9763928743072 L 747.9898519432829 415.2150672581778 L 736.4376669680631 462.7073832674147 L 678.676742091964 529.4533409020181 L 555.4534356896193 487.0953293262122 Z" fill-opacity="0.09803921568627451"/><path fill="rgb(211,47,47)" stroke="none" paint-order="stroke fill markers" fill-rule="evenodd" d=" M 896.3540563788074 412.61097038688933 L 920.7420024376048 354.8500455107903 L 1036.263852189803 380.5215676779454 L 1037.5474282981609 479.35692802149254 L 963.1000140134108 492.19268910507014 Z" fill-opacity="0.09803921568627451"/><path fill="rgb(21,101,192)" stroke="none" paint-order="stroke fill markers" d=" M 684.9898511878127 202.80031510884587 C 684.9898511878127 207.770877857323 680.9604139362899 211.80031510884587 675.9898511878127 211.80031510884587 C 671.0192884393356 211.80031510884587 666.9898511878127 207.770877857323 666.9898511878127 202.80031510884587 C 666.9898511878127 197.82975236036873 671.0192884393356 193.80031510884587 675.9898511878127 193.80031510884587 C 680.9604139362899 193.80031510884587 684.9898511878127 197.82975236036873 684.9898511878127 202.80031510884587 Z" fill-opacity="1"/><path fill="rgb(21,101,192)" stroke="none" paint-order="stroke fill markers" d=" M 623.0887265348745 213.2443015723213 C 623.0887265348745 218.21486432079843 619.0592892833516 222.2443015723213 614.0887265348745 222.2443015723213 C 609.1181637863973 222.2443015723213 605.0887265348745 218.21486432079843 605.0887265348745 213.2443015723213 C 605.0887265348745 208.27373882384416 609.1181637863973 204.2443015723213 614.0887265348745 204.2443015723213 C 619.0592892833516 204.2443015723213 623.0887265348745 208.27373882384416 623.0887265348745 213.2443015723213 Z" fill-opacity="1"/><path fill="rgb(21,101,192)" stroke="none" paint-order="stroke fill markers" d=" M 758.519250923072 206.54718772894893 C 758.519250923072 211.51775047742606 754.4898136715492 215.54718772894893 749.519250923072 215.54718772894893 C 744.5486881745949 215.54718772894893 740.519250923072 211.51775047742606 740.519250923072 206.54718772894893 C 740.519250923072 201.5766249804718 744.5486881745949 197.54718772894893 749.519250923072 197.54718772894893 C 754.4898136715492 197.54718772894893 758.519250923072 201.5766249804718 758.519250923072 206.54718772894893 Z" fill-opacity="1"/><path fill="rgb(21,101,192)" stroke="none" paint-order="stroke fill markers" d=" M 638.5742736369937 154.63334737316993 C 638.5742736369937 159.60391012164706 634.5448363854708 163.63334737316993 629.5742736369937 163.63334737316993 C 624.6037108885165 163.63334737316993 620.5742736369937 159.60391012164706 620.5742736369937 154.63334737316993 C 620.5742736369937 149.6627846246928 624.6037108885165 145.63334737316993 629.5742736369937 145.63334737316993 C 634.5448363854708 145.63334737316993 638.5742736369937 149.6627846246928 638.5742736369937 154.63334737316993 Z" fill-opacity="1"/><path fill="rgb(21,101,192)" stroke="none" paint-order="stroke fill markers" d=" M 917.0176118828857 241.52100446656016 C 917.0176118828857 246.4915672150373 912.9881746313629 250.52100446656016 908.0176118828857 250.52100446656016 C 903.0470491344086 250.52100446656016 899.0176118828857 246.4915672150373 899.0176118828857 241.52100446656016 C 899.0176118828857 236.55044171808302 903.0470491344086 232.52100446656016 908.0176118828857 232.52100446656016 C 912.9881746313629 232.52100446656016 917.0176118828857 236.55044171808302 917.0176118828857 241.52100446656016 Z" fill-opacity="1"/><path fill="rgb(21,101,192)" stroke="none" paint-order="stroke fill markers" d=" M 674.9721563021772 277.30769265212103 C 674.9721563021772 282.2782554005982 670.9427190506543 286.30769265212103 665.9721563021772 286.30769265212103 C 661.0015935537 286.30769265212103 656.9721563021772 282.2782554005982 656.9721563021772 277.30769265212103 C 656.9721563021772 272.33712990364387 661.0015935537 268.30769265212103 665.9721563021772 268.30769265212103 C 670.9427190506543 268.30769265212103 674.9721563021772 272.33712990364387 674.9721563021772 277.30769265212103 Z" fill-opacity="1"/><path fill="rgb(21,101,192)" stroke="none" paint-order="stroke fill markers" d=" M 841.116988324665 224.4061579779419 C 841.116988324665 229.37672072641902 837.0875510731422 233.4061579779419 832.116988324665 233.4061579779419 C 827.1464255761879 233.4061579779419 823.116988324665 229.37672072641902 823.116988324665 224.4061579779419 C 823.116988324665 219.43559522946475 827.1464255761879 215.4061579779419 832.116988324665 215.4061579779419 C 837.0875510731422 215.4061579779419 841.116988324665 219.43559522946475 841.116988324665 224.4061579779419 Z" fill-opacity="1"/><path fill="rgb(21,101,192)" stroke="none" paint-order="stroke fill markers" d=" M 732.2043288516392 265.46826002770985 C 732.2043288516392 270.438822776187 728.1748916001163 274.46826002770985 723.2043288516392 274.46826002770985 C 718.233766103162 274.46826002770985 714.2043288516392 270.438822776187 714.2043288516392 265.46826002770985 C 714.2043288516392 260.4976972792327 718.233766103162 256.46826002770985 723.2043288516392 256.46826002770985 C 728.1748916001163 256.46826002770985 732.2043288516392 260.4976972792327 732.2043288516392 265.46826002770985 Z" fill-opacity="1"/><path fill="rgb(21,101,192)" stroke="none" paint-order="stroke fill markers" d=" M 728.8219481226632 152.49674367991338 C 728.8219481226632 157.46730642839051 724.7925108711404 161.49674367991338 719.8219481226632 161.49674367991338 C 714.8513853741861 161.49674367991338 710.8219481226632 157.46730642839051 710.8219481226632 152.49674367991338 C 710.8219481226632 147.52618093143624 714.8513853741861 143.49674367991338 719.8219481226632 143.49674367991338 C 724.7925108711404 143.49674367991338 728.8219481226632 147.52618093143624 728.8219481226632 152.49674367991338 Z" fill-opacity="1"/><path fill="rgb(21,101,192)" stroke="none" paint-order="stroke fill markers" d=" M 816.0873709302431 278.99778294361363 C 816.0873709302431 283.9683456920908 812.0579336787202 287.99778294361363 807.0873709302431 287.99778294361363 C 802.1168081817659 287.99778294361363 798.0873709302431 283.9683456920908 798.0873709302431 278.99778294361363 C 798.0873709302431 274.02722019513647 802.1168081817659 269.99778294361363 807.0873709302431 269.99778294361363 C 812.0579336787202 269.99778294361363 816.0873709302431 274.02722019513647 816.0873709302431 278.99778294361363 Z" fill-opacity="1"/><path fill="rgb(21,101,192)" stroke="none" paint-order="stroke fill markers" d=" M 778.8811829115075 130.17303086867219 C 778.8811829115075 135.14359361714932 774.8517456599847 139.17303086867219 769.8811829115075 139.17303086867219 C 764.9106201630303 139.17303086867219 760.8811829115075 135.14359361714932 760.8811829115075 130.17303086867219 C 760.8811829115075 125.20246812019505 764.9106201630303 121.17303086867219 769.8811829115075 121.17303086867219 C 774.8517456599847 121.17303086867219 778.8811829115075 125.20246812019505 778.8811829115075 130.17303086867219 Z" fill-opacity="1"/><path fill="rgb(21,101,192)" stroke="none" paint-order="stroke fill markers" d=" M 867.4995580106778 300.64501960905966 C 867.4995580106778 305.6155823575368 863.470120759155 309.64501960905966 858.4995580106778 309.64501960905966 C 853.5289952622006 309.64501960905966 849.4995580106778 305.6155823575368 849.4995580106778 300.64501960905966 C 849.4995580106778 295.6744568605825 853.5289952622006 291.64501960905966 858.4995580106778 291.64501960905966 C 863.470120759155 291.64501960905966 867.4995580106778 295.6744568605825 867.4995580106778 300.64501960905966 Z" fill-opacity="1"/><path fill="rgb(21,101,192)" stroke="none" paint-order="stroke fill markers" d=" M 842.4699406162556 171.43807576217867 C 842.4699406162556 176.4086385106558 838.4405033647328 180.43807576217867 833.4699406162556 180.43807576217867 C 828.4993778677784 180.43807576217867 824.4699406162556 176.4086385106558 824.4699406162556 171.43807576217867 C 824.4699406162556 166.46751301370153 828.4993778677784 162.43807576217867 833.4699406162556 162.43807576217867 C 838.4405033647328 162.43807576217867 842.4699406162556 166.46751301370153 842.4699406162556 171.43807576217867 Z" fill-opacity="1"/><path fill="rgb(21,101,192)" stroke="none" paint-order="stroke fill markers" d=" M 549.420474257778 238.54450942506134 C 549.420474257778 243.51507217353847 545.3910370062551 247.54450942506134 540.420474257778 247.54450942506134 C 535.4499115093008 247.54450942506134 531.420474257778 243.51507217353847 531.420474257778 238.54450942506134 C 531.420474257778 233.5739466765842 535.4499115093008 229.54450942506134 540.420474257778 229.54450942506134 C 545.3910370062551 229.54450942506134 549.420474257778 233.5739466765842 549.420474257778 238.54450942506134 Z" fill-opacity="1"/><path fill="rgb(21,101,192)" stroke="none" paint-order="stroke fill markers" d=" M 593.3075964378096 293.321928346156 C 593.3075964378096 298.2924910946332 589.2781591862868 302.321928346156 584.3075964378096 302.321928346156 C 579.3370336893324 302.321928346156 575.3075964378096 298.2924910946332 575.3075964378096 293.321928346156 C 575.3075964378096 288.35136559767886 579.3370336893324 284.321928346156 584.3075964378096 284.321928346156 C 589.2781591862868 284.321928346156 593.3075964378096 288.35136559767886 593.3075964378096 293.321928346156 Z" fill-opacity="1"/><path fill="rgb(21,101,192)" stroke="none" paint-order="stroke fill markers" d=" M 572.4883108293941 173.8057422724618 C 572.4883108293941 178.77630502093893 568.4588735778713 182.8057422724618 563.4883108293941 182.8057422724618 C 558.5177480809169 182.8057422724618 554.4883108293941 178.77630502093893 554.4883108293941 173.8057422724618 C 554.4883108293941 168.83517952398466 558.5177480809169 164.8057422724618 563.4883108293941 164.8057422724618 C 568.4588735778713 164.8057422724618 572.4883108293941 168.83517952398466 572.4883108293941 173.8057422724618 Z" fill-opacity="1"/><path fill="rgb(21,101,192)" stroke="none" paint-order="stroke fill markers" d=" M 473.5198506995573 190.17646500070535 C 473.5198506995573 195.14702774918248 469.4904134480345 199.17646500070535 464.5198506995573 199.17646500070535 C 459.54928795108015 199.17646500070535 455.5198506995573 195.14702774918248 455.5198506995573 190.17646500070535 C 455.5198506995573 185.2059022522282 459.54928795108015 181.17646500070535 464.5198506995573 181.17646500070535 C 469.4904134480345 181.17646500070535 473.5198506995573 185.2059022522282 473.5198506995573 190.17646500070535 Z" fill-opacity="1"/><path fill="rgb(21,101,192)" stroke="none" paint-order="stroke fill markers" d=" M 473.5198506995573 260.12409847592784 C 473.5198506995573 265.094661224405 469.4904134480345 269.12409847592784 464.5198506995573 269.12409847592784 C 459.54928795108015 269.12409847592784 455.5198506995573 265.094661224405 455.5198506995573 260.12409847592784 C 455.5198506995573 255.1535357274507 459.54928795108015 251.12409847592784 464.5198506995573 251.12409847592784 C 469.4904134480345 251.12409847592784 473.5198506995573 255.1535357274507 473.5198506995573 260.12409847592784 Z" fill-opacity="1"/><path fill="rgb(46,125,50)" stroke="none" paint-order="stroke fill markers" d=" M 520.8118480054555 397.2450017411692 C 520.8118480054555 402.21556448964634 516.7824107539327 406.2450017411692 511.81184800545554 406.2450017411692 C 506.8412852569784 406.2450017411692 502.81184800545554 402.21556448964634 502.81184800545554 397.2450017411692 C 502.81184800545554 392.274438992692 506.8412852569784 388.2450017411692 511.81184800545554 388.2450017411692 C 516.7824107539327 388.2450017411692 520.8118480054555 392.274438992692 520.8118480054555 397.2450017411692 Z" fill-opacity="1"/><path fill="rgb(46,125,50)" stroke="none" paint-order="stroke fill markers" d=" M 574.7220445564814 380.5585123325184 C 574.7220445564814 385.52907508099554 570.6926073049585 389.5585123325184 565.7220445564814 389.5585123325184 C 560.7514818080042 389.5585123325184 556.7220445564814 385.52907508099554 556.7220445564814 380.5585123325184 C 556.7220445564814 375.5879495840412 560.7514818080042 371.5585123325184 565.7220445564814 371.5585123325184 C 570.6926073049585 371.5585123325184 574.7220445564814 375.5879495840412 574.7220445564814 380.5585123325184 Z" fill-opacity="1"/><path fill="rgb(46,125,50)" stroke="none" paint-order="stroke fill markers" d=" M 687.676742091964 462.7073832674147 C 687.676742091964 467.67794601589185 683.6473048404412 471.7073832674147 678.676742091964 471.7073832674147 C 673.7061793434868 471.7073832674147 669.676742091964 467.67794601589185 669.676742091964 462.7073832674147 C 669.676742091964 457.7368205189375 673.7061793434868 453.7073832674147 678.676742091964 453.7073832674147 C 683.6473048404412 453.7073832674147 687.676742091964 457.7368205189375 687.676742091964 462.7073832674147 Z" fill-opacity="1"/><path fill="rgb(46,125,50)" stroke="none" paint-order="stroke fill markers" d=" M 669.7066765749554 386.9763928743072 C 669.7066765749554 391.94695562278434 665.6772393234326 395.9763928743072 660.7066765749554 395.9763928743072 C 655.7361138264782 395.9763928743072 651.7066765749554 391.94695562278434 651.7066765749554 386.9763928743072 C 651.7066765749554 382.00583012583 655.7361138264782 377.9763928743072 660.7066765749554 377.9763928743072 C 665.6772393234326 377.9763928743072 669.7066765749554 382.00583012583 669.7066765749554 386.9763928743072 Z" fill-opacity="1"/><path fill="rgb(46,125,50)" stroke="none" paint-order="stroke fill markers" d=" M 622.2143605657184 443.4537416420484 C 622.2143605657184 448.42430439052555 618.1849233141955 452.4537416420484 613.2143605657184 452.4537416420484 C 608.2437978172412 452.4537416420484 604.2143605657184 448.42430439052555 604.2143605657184 443.4537416420484 C 604.2143605657184 438.4831788935712 608.2437978172412 434.4537416420484 613.2143605657184 434.4537416420484 C 618.1849233141955 434.4537416420484 622.2143605657184 438.4831788935712 622.2143605657184 443.4537416420484 Z" fill-opacity="1"/><path fill="rgb(46,125,50)" stroke="none" paint-order="stroke fill markers" d=" M 564.4534356896193 487.0953293262122 C 564.4534356896193 492.0658920746894 560.4239984380964 496.0953293262122 555.4534356896193 496.0953293262122 C 550.4828729411421 496.0953293262122 546.4534356896193 492.0658920746894 546.4534356896193 487.0953293262122 C 546.4534356896193 482.12476657773504 550.4828729411421 478.0953293262122 555.4534356896193 478.0953293262122 C 560.4239984380964 478.0953293262122 564.4534356896193 482.12476657773504 564.4534356896193 487.0953293262122 Z" fill-opacity="1"/><path fill="rgb(46,125,50)" stroke="none" paint-order="stroke fill markers" d=" M 687.676742091964 529.4533409020181 C 687.676742091964 534.4239036504953 683.6473048404412 538.4533409020181 678.676742091964 538.4533409020181 C 673.7061793434868 538.4533409020181 669.676742091964 534.4239036504953 669.676742091964 529.4533409020181 C 669.676742091964 524.482778153541 673.7061793434868 520.4533409020181 678.676742091964 520.4533409020181 C 683.6473048404412 520.4533409020181 687.676742091964 524.482778153541 687.676742091964 529.4533409020181 Z" fill-opacity="1"/><path fill="rgb(46,125,50)" stroke="none" paint-order="stroke fill markers" d=" M 756.9898519432829 415.2150672581778 C 756.9898519432829 420.18563000665495 752.9604146917601 424.2150672581778 747.9898519432829 424.2150672581778 C 743.0192891948058 424.2150672581778 738.9898519432829 420.18563000665495 738.9898519432829 415.2150672581778 C 738.9898519432829 410.2445045097006 743.0192891948058 406.2150672581778 747.9898519432829 406.2150672581778 C 752.9604146917601 406.2150672581778 756.9898519432829 410.2445045097006 756.9898519432829 415.2150672581778 Z" fill-opacity="1"/><path fill="rgb(46,125,50)" stroke="none" paint-order="stroke fill markers" d=" M 745.4376669680631 462.7073832674147 C 745.4376669680631 467.67794601589185 741.4082297165403 471.7073832674147 736.4376669680631 471.7073832674147 C 731.467104219586 471.7073832674147 727.4376669680631 467.67794601589185 727.4376669680631 462.7073832674147 C 727.4376669680631 457.7368205189375 731.467104219586 453.7073832674147 736.4376669680631 453.7073832674147 C 741.4082297165403 453.7073832674147 745.4376669680631 457.7368205189375 745.4376669680631 462.7073832674147 Z" fill-opacity="1"/><path fill="rgb(211,47,47)" stroke="none" paint-order="stroke fill markers" d=" M 929.7420024376048 354.8500455107903 C 929.7420024376048 359.8206082592675 925.712565186082 363.8500455107903 920.7420024376048 363.8500455107903 C 915.7714396891276 363.8500455107903 911.7420024376048 359.8206082592675 911.7420024376048 354.8500455107903 C 911.7420024376048 349.87948276231316 915.7714396891276 345.8500455107903 920.7420024376048 345.8500455107903 C 925.712565186082 345.8500455107903 929.7420024376048 349.87948276231316 929.7420024376048 354.8500455107903 Z" fill-opacity="1"/><path fill="rgb(211,47,47)" stroke="none" paint-order="stroke fill markers" d=" M 905.3540563788074 412.61097038688933 C 905.3540563788074 417.5815331353665 901.3246191272846 421.61097038688933 896.3540563788074 421.61097038688933 C 891.3834936303302 421.61097038688933 887.3540563788074 417.5815331353665 887.3540563788074 412.61097038688933 C 887.3540563788074 407.64040763841217 891.3834936303302 403.61097038688933 896.3540563788074 403.61097038688933 C 901.3246191272846 403.61097038688933 905.3540563788074 407.64040763841217 905.3540563788074 412.61097038688933 Z" fill-opacity="1"/><path fill="rgb(211,47,47)" stroke="none" paint-order="stroke fill markers" d=" M 993.9208078554927 442.1332208791177 C 993.9208078554927 447.10378362759485 989.8913706039699 451.1332208791177 984.9208078554927 451.1332208791177 C 979.9502451070156 451.1332208791177 975.9208078554927 447.10378362759485 975.9208078554927 442.1332208791177 C 975.9208078554927 437.1626581306405 979.9502451070156 433.1332208791177 984.9208078554927 433.1332208791177 C 989.8913706039699 433.1332208791177 993.9208078554927 437.1626581306405 993.9208078554927 442.1332208791177 Z" fill-opacity="1"/><path fill="rgb(211,47,47)" stroke="none" paint-order="stroke fill markers" d=" M 972.1000140134108 492.19268910507014 C 972.1000140134108 497.1632518535473 968.070576761888 501.19268910507014 963.1000140134108 501.19268910507014 C 958.1294512649337 501.19268910507014 954.1000140134108 497.1632518535473 954.1000140134108 492.19268910507014 C 954.1000140134108 487.222126356593 958.1294512649337 483.19268910507014 963.1000140134108 483.19268910507014 C 968.070576761888 483.19268910507014 972.1000140134108 487.222126356593 972.1000140134108 492.19268910507014 Z" fill-opacity="1"/><path fill="rgb(211,47,47)" stroke="none" paint-order="stroke fill markers" d=" M 954.1299484964022 416.4616987119626 C 954.1299484964022 421.43226146043975 950.1005112448794 425.4616987119626 945.1299484964022 425.4616987119626 C 940.1593857479251 425.4616987119626 936.1299484964022 421.43226146043975 936.1299484964022 416.4616987119626 C 936.1299484964022 411.4911359634854 940.1593857479251 407.4616987119626 945.1299484964022 407.4616987119626 C 950.1005112448794 407.4616987119626 954.1299484964022 411.4911359634854 954.1299484964022 416.4616987119626 Z" fill-opacity="1"/><path fill="rgb(211,47,47)" stroke="none" paint-order="stroke fill markers" d=" M 1045.263852189803 380.5215676779454 C 1045.263852189803 385.4921304264226 1041.23441493828 389.5215676779454 1036.263852189803 389.5215676779454 C 1031.293289441326 389.5215676779454 1027.263852189803 385.4921304264226 1027.263852189803 380.5215676779454 C 1027.263852189803 375.55100492946826 1031.293289441326 371.5215676779454 1036.263852189803 371.5215676779454 C 1041.23441493828 371.5215676779454 1045.263852189803 375.55100492946826 1045.263852189803 380.5215676779454 Z" fill-opacity="1"/><path fill="rgb(211,47,47)" stroke="none" paint-order="stroke fill markers" d=" M 1046.5474282981609 479.35692802149254 C 1046.5474282981609 484.3274907699697 1042.517991046638 488.35692802149254 1037.5474282981609 488.35692802149254 C 1032.5768655496838 488.35692802149254 1028.5474282981609 484.3274907699697 1028.5474282981609 479.35692802149254 C 1028.5474282981609 474.3863652730154 1032.5768655496838 470.35692802149254 1037.5474282981609 470.35692802149254 C 1042.517991046638 470.35692802149254 1046.5474282981609 474.3863652730154 1046.5474282981609 479.35692802149254 Z" fill-opacity="1"/><path fill="rgb(0,0,0)" stroke="none" paint-order="stroke fill markers" d=" M 342.59999999999997 342.5 C 342.59999999999997 347.47056274847716 338.57056274847713 351.5 333.59999999999997 351.5 C 328.6294372515228 351.5 324.59999999999997 347.47056274847716 324.59999999999997 342.5 C 324.59999999999997 337.52943725152284 328.6294372515228 333.5 333.59999999999997 333.5 C 338.57056274847713 333.5 342.59999999999997 337.52943725152284 342.59999999999997 342.5 Z" fill-opacity="1"/><path fill="rgb(0,0,0)" stroke="none" paint-order="stroke fill markers" d=" M 366.79999999999995 383.2 C 366.79999999999995 388.17056274847715 362.7705627484771 392.2 357.79999999999995 392.2 C 352.8294372515228 392.2 348.79999999999995 388.17056274847715 348.79999999999995 383.2 C 348.79999999999995 378.2294372515228 352.8294372515228 374.2 357.79999999999995 374.2 C 362.7705627484771 374.2 366.79999999999995 378.2294372515228 366.79999999999995 383.2 Z" fill-opacity="1"/><path fill="rgb(0,0,0)" stroke="none" paint-order="stroke fill markers" d=" M 283.2 384.3 C 283.2 389.2705627484772 279.17056274847715 393.3 274.2 393.3 C 269.2294372515228 393.3 265.2 389.2705627484772 265.2 384.3 C 265.2 379.32943725152285 269.2294372515228 375.3 274.2 375.3 C 279.17056274847715 375.3 283.2 379.32943725152285 283.2 384.3 Z" fill-opacity="1"/><path fill="rgb(0,0,0)" stroke="none" paint-order="stroke fill markers" d=" M 296.4 312.79999999999995 C 296.4 317.7705627484771 292.37056274847714 321.79999999999995 287.4 321.79999999999995 C 282.4294372515228 321.79999999999995 278.4 317.7705627484771 278.4 312.79999999999995 C 278.4 307.8294372515228 282.4294372515228 303.79999999999995 287.4 303.79999999999995 C 292.37056274847714 303.79999999999995 296.4 307.8294372515228 296.4 312.79999999999995 Z" fill-opacity="1"/><g transform="scale(35,35)"><g transform="translate(16.457142857142856,3.483332)"><path fill="rgb(0,0,0)" stroke="none" paint-order="stroke fill markers" d=" M 0.76 -0.6950000000000001 L 0.6970000000000001 -0.44 Q 0.6920000000000001 -0.422 0.687 -0.421 L 0.686 -0.42 L 0.679 -0.42 Q 0.664 -0.42 0.664 -0.43 L 0.667 -0.47900000000000004 L 0.667 -0.481 Q 0.667 -0.605 0.589 -0.652 L 0.588 -0.653 Q 0.553 -0.674 0.506 -0.674 Q 0.4 -0.674 0.305 -0.595 Q 0.281 -0.5760000000000001 0.262 -0.553 Q 0.167 -0.442 0.145 -0.271 Q 0.14100000000000001 -0.24 0.14100000000000001 -0.217 Q 0.14100000000000001 -0.077 0.247 -0.028 Q 0.28800000000000003 -0.009000000000000001 0.337 -0.009000000000000001 Q 0.431 -0.009000000000000001 0.521 -0.082 Q 0.591 -0.14100000000000001 0.622 -0.24 Q 0.624 -0.25 0.635 -0.25 Q 0.647 -0.25 0.647 -0.24 Q 0.647 -0.222 0.624 -0.176 Q 0.593 -0.113 0.537 -0.064 Q 0.438 0.022 0.321 0.022 Q 0.193 0.022 0.116 -0.066 Q 0.05 -0.14100000000000001 0.05 -0.252 Q 0.05 -0.401 0.159 -0.531 Q 0.26 -0.652 0.398 -0.6910000000000001 Q 0.449 -0.705 0.498 -0.705 Q 0.607 -0.705 0.664 -0.616 L 0.734 -0.6930000000000001 Q 0.746 -0.705 0.749 -0.705 Q 0.76 -0.705 0.76 -0.6950000000000001 Z"/></g><g transform="translate(17.171864857142854,3.633332) scale(0.7,0.7)"><path fill="rgb(0,0,0)" stroke="none" paint-order="stroke fill markers" d=" M 0.294 -0.64 L 0.294 -0.079 Q 0.294 -0.049 0.306 -0.041 Q 0.323 -0.031 0.387 -0.031 L 0.419 -0.031 L 0.419 0 Q 0.384 -0.003 0.257 -0.003 Q 0.13 -0.003 0.095 0 L 0.095 -0.031 L 0.127 -0.031 Q 0.20400000000000001 -0.031 0.215 -0.049 L 0.216 -0.05 Q 0.22 -0.058 0.22 -0.079 L 0.22 -0.597 Q 0.168 -0.5710000000000001 0.089 -0.5710000000000001 L 0.089 -0.602 Q 0.209 -0.602 0.271 -0.666 Q 0.29 -0.666 0.293 -0.659 L 0.293 -0.659 L 0.293 -0.658 Q 0.294 -0.655 0.294 -0.64 Z"/></g></g><g transform="scale(35,35)"><g transform="translate(13.685714285714285,13.483332)"><path fill="rgb(0,0,0)" stroke="none" paint-order="stroke fill markers" d=" M 0.76 -0.6950000000000001 L 0.6970000000000001 -0.44 Q 0.6920000000000001 -0.422 0.687 -0.421 L 0.686 -0.42 L 0.679 -0.42 Q 0.664 -0.42 0.664 -0.43 L 0.667 -0.47900000000000004 L 0.667 -0.481 Q 0.667 -0.605 0.589 -0.652 L 0.588 -0.653 Q 0.553 -0.674 0.506 -0.674 Q 0.4 -0.674 0.305 -0.595 Q 0.281 -0.5760000000000001 0.262 -0.553 Q 0.167 -0.442 0.145 -0.271 Q 0.14100000000000001 -0.24 0.14100000000000001 -0.217 Q 0.14100000000000001 -0.077 0.247 -0.028 Q 0.28800000000000003 -0.009000000000000001 0.337 -0.009000000000000001 Q 0.431 -0.009000000000000001 0.521 -0.082 Q 0.591 -0.14100000000000001 0.622 -0.24 Q 0.624 -0.25 0.635 -0.25 Q 0.647 -0.25 0.647 -0.24 Q 0.647 -0.222 0.624 -0.176 Q 0.593 -0.113 0.537 -0.064 Q 0.438 0.022 0.321 0.022 Q 0.193 0.022 0.116 -0.066 Q 0.05 -0.14100000000000001 0.05 -0.252 Q 0.05 -0.401 0.159 -0.531 Q 0.26 -0.652 0.398 -0.6910000000000001 Q 0.449 -0.705 0.498 -0.705 Q 0.607 -0.705 0.664 -0.616 L 0.734 -0.6930000000000001 Q 0.746 -0.705 0.749 -0.705 Q 0.76 -0.705 0.76 -0.6950000000000001 Z"/></g><g transform="translate(14.400436285714285,13.633332000000001) scale(0.7,0.7)"><path fill="rgb(0,0,0)" stroke="none" paint-order="stroke fill markers" d=" M 0.449 -0.17400000000000002 L 0.449 -0.17400000000000002 L 0.421 0 L 0.05 0 Q 0.05 -0.025 0.056 -0.032 L 0.061 -0.037 L 0.253 -0.251 Q 0.358 -0.369 0.358 -0.47200000000000003 Q 0.358 -0.561 0.304 -0.607 L 0.303 -0.608 L 0.302 -0.608 Q 0.27 -0.635 0.224 -0.635 Q 0.152 -0.635 0.109 -0.5730000000000001 Q 0.097 -0.555 0.089 -0.533 Q 0.092 -0.534 0.10200000000000001 -0.534 Q 0.14200000000000002 -0.534 0.153 -0.498 L 0.153 -0.497 Q 0.155 -0.49 0.155 -0.482 Q 0.155 -0.442 0.117 -0.431 Q 0.109 -0.429 0.10300000000000001 -0.429 Q 0.066 -0.429 0.054 -0.46 Q 0.05 -0.47100000000000003 0.05 -0.485 Q 0.05 -0.562 0.109 -0.617 Q 0.162 -0.666 0.23700000000000002 -0.666 Q 0.34700000000000003 -0.666 0.40800000000000003 -0.592 Q 0.443 -0.549 0.448 -0.49 Q 0.449 -0.481 0.449 -0.47200000000000003 Q 0.449 -0.399 0.394 -0.333 Q 0.365 -0.299 0.304 -0.243 L 0.243 -0.189 L 0.233 -0.18 L 0.127 -0.077 L 0.307 -0.077 Q 0.395 -0.077 0.402 -0.085 Q 0.41200000000000003 -0.099 0.424 -0.17400000000000002 L 0.449 -0.17400000000000002 Z"/></g></g><g transform="scale(35,35)"><g transform="translate(27.485714285714284,9.797617714285714)"><path fill="rgb(0,0,0)" stroke="none" paint-order="stroke fill markers" d=" M 0.76 -0.6950000000000001 L 0.6970000000000001 -0.44 Q 0.6920000000000001 -0.422 0.687 -0.421 L 0.686 -0.42 L 0.679 -0.42 Q 0.664 -0.42 0.664 -0.43 L 0.667 -0.47900000000000004 L 0.667 -0.481 Q 0.667 -0.605 0.589 -0.652 L 0.588 -0.653 Q 0.553 -0.674 0.506 -0.674 Q 0.4 -0.674 0.305 -0.595 Q 0.281 -0.5760000000000001 0.262 -0.553 Q 0.167 -0.442 0.145 -0.271 Q 0.14100000000000001 -0.24 0.14100000000000001 -0.217 Q 0.14100000000000001 -0.077 0.247 -0.028 Q 0.28800000000000003 -0.009000000000000001 0.337 -0.009000000000000001 Q 0.431 -0.009000000000000001 0.521 -0.082 Q 0.591 -0.14100000000000001 0.622 -0.24 Q 0.624 -0.25 0.635 -0.25 Q 0.647 -0.25 0.647 -0.24 Q 0.647 -0.222 0.624 -0.176 Q 0.593 -0.113 0.537 -0.064 Q 0.438 0.022 0.321 0.022 Q 0.193 0.022 0.116 -0.066 Q 0.05 -0.14100000000000001 0.05 -0.252 Q 0.05 -0.401 0.159 -0.531 Q 0.26 -0.652 0.398 -0.6910000000000001 Q 0.449 -0.705 0.498 -0.705 Q 0.607 -0.705 0.664 -0.616 L 0.734 -0.6930000000000001 Q 0.746 -0.705 0.749 -0.705 Q 0.76 -0.705 0.76 -0.6950000000000001 Z"/></g><g transform="translate(28.200436285714282,9.947617714285714) scale(0.7,0.7)"><path fill="rgb(0,0,0)" stroke="none" paint-order="stroke fill markers" d=" M 0.29 -0.352 L 0.29 -0.352 Q 0.39 -0.332 0.434 -0.254 Q 0.457 -0.215 0.457 -0.171 Q 0.457 -0.08600000000000001 0.387 -0.028 Q 0.326 0.022 0.244 0.022 Q 0.145 0.022 0.085 -0.037 Q 0.042 -0.079 0.042 -0.135 Q 0.042 -0.182 0.084 -0.191 Q 0.091 -0.193 0.098 -0.193 Q 0.136 -0.193 0.149 -0.161 Q 0.153 -0.148 0.154 -0.137 Q 0.154 -0.097 0.11800000000000001 -0.085 Q 0.10400000000000001 -0.08 0.088 -0.082 Q 0.125 -0.02 0.216 -0.008 Q 0.229 -0.006 0.241 -0.006 Q 0.305 -0.006 0.335 -0.069 Q 0.354 -0.109 0.354 -0.171 Q 0.354 -0.304 0.274 -0.331 Q 0.256 -0.337 0.23500000000000001 -0.337 L 0.191 -0.337 Q 0.169 -0.337 0.167 -0.34800000000000003 Q 0.167 -0.358 0.182 -0.36 Q 0.197 -0.36 0.221 -0.363 Q 0.272 -0.365 0.301 -0.402 L 0.301 -0.403 L 0.302 -0.404 L 0.303 -0.405 L 0.304 -0.405 L 0.31 -0.41500000000000004 Q 0.338 -0.462 0.338 -0.529 Q 0.338 -0.622 0.266 -0.638 Q 0.254 -0.641 0.242 -0.641 Q 0.17200000000000001 -0.641 0.128 -0.601 Q 0.117 -0.591 0.109 -0.579 Q 0.171 -0.579 0.171 -0.529 Q 0.171 -0.493 0.14 -0.481 Q 0.131 -0.47800000000000004 0.12 -0.47800000000000004 Q 0.081 -0.47800000000000004 0.07100000000000001 -0.513 L 0.07100000000000001 -0.513 L 0.07100000000000001 -0.514 Q 0.069 -0.522 0.069 -0.53 Q 0.069 -0.597 0.135 -0.637 Q 0.183 -0.666 0.246 -0.666 Q 0.337 -0.666 0.393 -0.612 L 0.395 -0.61 Q 0.43 -0.5740000000000001 0.43 -0.528 Q 0.43 -0.445 0.359 -0.389 Q 0.328 -0.365 0.29 -0.352 Z"/></g></g><g transform="scale(35,35)"><g transform="translate(7.6571428571428575,12.997617714285715)"><path fill="rgb(0,0,0)" stroke="none" paint-order="stroke fill markers" d=" M 0.756 -0.578 L 0.616 -0.021 Q 0.611 -0.002 0.606 -0.001 L 0.605 0 L 0.6 0 Q 0.59 0 0.584 -0.012 Q 0.583 -0.015 0.581 -0.019 L 0.332 -0.608 L 0.323 -0.626 L 0.191 -0.098 Q 0.187 -0.083 0.187 -0.075 Q 0.187 -0.041 0.23 -0.033 Q 0.24 -0.031 0.253 -0.031 Q 0.273 -0.031 0.273 -0.02 Q 0.273 0 0.255 0 L 0.155 -0.003 L 0.152 -0.003 L 0.053 0 L 0.052000000000000005 0 Q 0.039 0 0.039 -0.011 Q 0.039 -0.031 0.056 -0.031 Q 0.135 -0.034 0.156 -0.081 Q 0.16 -0.091 0.164 -0.106 L 0.298 -0.643 Q 0.298 -0.652 0.23 -0.652 Q 0.20400000000000001 -0.652 0.202 -0.663 Q 0.202 -0.681 0.217 -0.683 L 0.231 -0.683 L 0.365 -0.683 Q 0.386 -0.683 0.391 -0.676 Q 0.393 -0.673 0.397 -0.664 L 0.618 -0.14200000000000002 L 0.73 -0.587 Q 0.733 -0.596 0.733 -0.608 Q 0.733 -0.651 0.665 -0.652 Q 0.647 -0.652 0.647 -0.663 Q 0.647 -0.683 0.665 -0.683 L 0.766 -0.68 L 0.767 -0.68 L 0.867 -0.683 L 0.868 -0.683 Q 0.881 -0.683 0.881 -0.672 Q 0.881 -0.652 0.864 -0.652 Q 0.786 -0.649 0.764 -0.603 L 0.764 -0.603 Q 0.76 -0.593 0.756 -0.578 Z"/></g><g transform="translate(8.569642357142857,12.997617714285715)"><path fill="rgb(0,0,0)" stroke="none" paint-order="stroke fill markers" d=" M 0.46900000000000003 -0.273 Q 0.46900000000000003 -0.167 0.388 -0.08 Q 0.311 0.004 0.215 0.01 Q 0.20800000000000002 0.011 0.201 0.011 Q 0.114 0.011 0.069 -0.058 Q 0.041 -0.101 0.041 -0.158 Q 0.041 -0.261 0.121 -0.34900000000000003 Q 0.197 -0.433 0.293 -0.441 Q 0.301 -0.442 0.309 -0.442 Q 0.395 -0.442 0.44 -0.375 Q 0.46900000000000003 -0.332 0.46900000000000003 -0.273 M 0.202 -0.011 L 0.202 -0.011 Q 0.261 -0.011 0.313 -0.069 Q 0.327 -0.085 0.338 -0.10300000000000001 Q 0.38 -0.17500000000000002 0.394 -0.28200000000000003 Q 0.395 -0.29 0.395 -0.298 L 0.395 -0.299 L 0.396 -0.3 L 0.396 -0.312 Q 0.396 -0.386 0.34700000000000003 -0.41100000000000003 Q 0.33 -0.42 0.308 -0.42 Q 0.247 -0.42 0.193 -0.356 Q 0.186 -0.34700000000000003 0.18 -0.338 Q 0.176 -0.333 0.17300000000000001 -0.328 Q 0.137 -0.27 0.12 -0.166 Q 0.115 -0.138 0.115 -0.12 Q 0.115 -0.037 0.17300000000000001 -0.016 Q 0.187 -0.011 0.202 -0.011 Z"/></g><g transform="translate(9.054365357142858,12.997617714285715)"><path fill="rgb(0,0,0)" stroke="none" paint-order="stroke fill markers" d=" M 0.28400000000000003 -0.625 Q 0.28400000000000003 -0.594 0.253 -0.578 Q 0.242 -0.5720000000000001 0.231 -0.5720000000000001 Q 0.201 -0.5720000000000001 0.194 -0.599 Q 0.193 -0.604 0.193 -0.608 Q 0.193 -0.636 0.221 -0.653 Q 0.234 -0.661 0.247 -0.661 Q 0.277 -0.661 0.28300000000000003 -0.634 L 0.28300000000000003 -0.633 Q 0.28400000000000003 -0.629 0.28400000000000003 -0.625 M 0.20800000000000002 -0.249 L 0.169 -0.14400000000000002 Q 0.14100000000000001 -0.063 0.14 -0.044 Q 0.14 -0.011 0.164 -0.011 Q 0.227 -0.011 0.262 -0.123 L 0.266 -0.135 Q 0.271 -0.151 0.276 -0.152 L 0.276 -0.153 L 0.281 -0.153 Q 0.293 -0.153 0.293 -0.14300000000000002 Q 0.293 -0.125 0.271 -0.079 Q 0.228 0.011 0.162 0.011 Q 0.109 0.011 0.088 -0.033 Q 0.08 -0.051000000000000004 0.08 -0.07100000000000001 Q 0.08 -0.091 0.10300000000000001 -0.151 Q 0.17300000000000001 -0.339 0.17200000000000001 -0.336 Q 0.183 -0.364 0.183 -0.388 Q 0.183 -0.42 0.158 -0.42 Q 0.10300000000000001 -0.42 0.068 -0.329 L 0.068 -0.328 Q 0.062 -0.313 0.057 -0.296 Q 0.046 -0.279 0.041 -0.278 Q 0.029 -0.278 0.029 -0.28800000000000003 Q 0.029 -0.306 0.051000000000000004 -0.35100000000000003 Q 0.094 -0.442 0.161 -0.442 Q 0.214 -0.442 0.23500000000000001 -0.397 Q 0.243 -0.38 0.243 -0.36 Q 0.243 -0.34 0.23 -0.307 Q 0.213 -0.261 0.20800000000000002 -0.249 Z"/></g><g transform="translate(9.398878357142857,12.997617714285715)"><path fill="rgb(0,0,0)" stroke="none" paint-order="stroke fill markers" d=" M 0.391 -0.374 L 0.391 -0.374 Q 0.37 -0.418 0.301 -0.42 Q 0.22 -0.42 0.195 -0.359 Q 0.189 -0.34400000000000003 0.189 -0.33 Q 0.189 -0.291 0.23700000000000002 -0.277 L 0.23700000000000002 -0.277 L 0.23800000000000002 -0.276 Q 0.245 -0.274 0.265 -0.27 Q 0.327 -0.257 0.34800000000000003 -0.242 Q 0.357 -0.23600000000000002 0.365 -0.228 Q 0.396 -0.197 0.396 -0.155 Q 0.396 -0.10300000000000001 0.357 -0.056 Q 0.301 0.011 0.195 0.011 Q 0.10200000000000001 0.011 0.066 -0.041 Q 0.052000000000000005 -0.061 0.052000000000000005 -0.08600000000000001 Q 0.052000000000000005 -0.135 0.09 -0.149 Q 0.099 -0.152 0.108 -0.152 Q 0.14100000000000001 -0.147 0.145 -0.117 Q 0.145 -0.08600000000000001 0.11800000000000001 -0.07100000000000001 Q 0.10200000000000001 -0.061 0.082 -0.064 Q 0.105 -0.011 0.196 -0.011 Q 0.299 -0.011 0.331 -0.08600000000000001 Q 0.339 -0.105 0.339 -0.121 Q 0.339 -0.169 0.28 -0.187 L 0.28 -0.187 L 0.279 -0.187 Q 0.264 -0.191 0.23500000000000001 -0.197 Q 0.145 -0.216 0.134 -0.277 Q 0.132 -0.28600000000000003 0.132 -0.296 Q 0.132 -0.34600000000000003 0.17 -0.389 Q 0.217 -0.442 0.301 -0.442 Q 0.38 -0.442 0.41000000000000003 -0.393 Q 0.42 -0.376 0.42 -0.356 Q 0.42 -0.311 0.386 -0.302 Q 0.38 -0.3 0.374 -0.3 Q 0.34600000000000003 -0.304 0.343 -0.329 Q 0.343 -0.356 0.37 -0.369 Q 0.38 -0.374 0.391 -0.374 Z"/></g><g transform="translate(9.867628357142857,12.997617714285715)"><path fill="rgb(0,0,0)" stroke="none" paint-order="stroke fill markers" d=" M 0.187 -0.231 L 0.134 -0.231 Q 0.11800000000000001 -0.166 0.11800000000000001 -0.127 Q 0.11800000000000001 -0.048 0.164 -0.021 Q 0.181 -0.011 0.20500000000000002 -0.011 Q 0.295 -0.011 0.367 -0.07100000000000001 Q 0.388 -0.088 0.405 -0.11 Q 0.41200000000000003 -0.12 0.418 -0.12 Q 0.427 -0.12 0.43 -0.107 Q 0.43 -0.096 0.396 -0.064 Q 0.313 0.011 0.203 0.011 Q 0.113 0.011 0.07100000000000001 -0.066 Q 0.046 -0.111 0.046 -0.17 Q 0.046 -0.301 0.148 -0.382 Q 0.223 -0.442 0.308 -0.442 Q 0.38 -0.442 0.406 -0.392 Q 0.41500000000000004 -0.376 0.41500000000000004 -0.357 Q 0.41500000000000004 -0.305 0.37 -0.271 L 0.369 -0.27 Q 0.356 -0.261 0.34 -0.254 Q 0.28500000000000003 -0.231 0.187 -0.231 M 0.14 -0.253 L 0.181 -0.253 Q 0.382 -0.253 0.382 -0.357 Q 0.382 -0.397 0.343 -0.41400000000000003 L 0.343 -0.41400000000000003 Q 0.329 -0.419 0.308 -0.42 Q 0.252 -0.42 0.20500000000000002 -0.374 Q 0.16 -0.33 0.14 -0.253 Z"/></g></g></g></g></svg>